{
	"asset":{
		"version":"2.0",
		"generator":"Created using the official Cinema 4D glTF Exporter 1.000x284978"
	},
	"scenes":[{
		"nodes":[0]
	}],
	"nodes":[{
		"translation":[0.20246094465255738,
		-1.5530730485916138,
		0.4089099168777466],
		"name":"柜子",
		"scale":[1.0,
		1.0,
		1.0],
		"rotation":[0.0,
		0.0,
		0.0,
		-1.0],
		"children":[1,
		2,
		3,
		4]
	},
	{
		"name":"柜子-材质.11",
		"mesh":0
	},
	{
		"name":"柜子-材质.10",
		"mesh":1
	},
	{
		"name":"柜子-材质.11",
		"mesh":2
	},
	{
		"name":"柜子-材质.9",
		"mesh":3
	}],
	"meshes":[{
		"name":"柜子-材质.11",
		"primitives":[{
			"attributes":{
				"POSITION":1,
				"NORMAL":2,
				"TEXCOORD_0":3
			},
			"indices":0,
			"material":0
		}]
	},
	{
		"name":"柜子-材质.10",
		"primitives":[{
			"attributes":{
				"POSITION":5,
				"NORMAL":6,
				"TEXCOORD_0":7
			},
			"indices":4,
			"material":1
		}]
	},
	{
		"name":"柜子-材质.11",
		"primitives":[{
			"attributes":{
				"POSITION":9,
				"NORMAL":10,
				"TEXCOORD_0":11
			},
			"indices":8,
			"material":0
		}]
	},
	{
		"name":"柜子-材质.9",
		"primitives":[{
			"attributes":{
				"POSITION":13,
				"NORMAL":14,
				"TEXCOORD_0":15
			},
			"indices":12,
			"material":2
		}]
	}],
	"accessors":[{
		"bufferView":0,
		"min":[0],
		"type":"SCALAR",
		"componentType":5123,
		"count":336,
		"byteOffset":0,
		"max":[163]
	},
	{
		"bufferView":1,
		"min":[-2.8906872272491457,
		-1.5527275800704957,
		0.21937492489814759],
		"type":"VEC3",
		"componentType":5126,
		"count":164,
		"byteOffset":0,
		"max":[2.483715295791626,
		3.888284683227539,
		1.102526068687439]
	},
	{
		"bufferView":1,
		"min":[-1.0,
		-1.0,
		-1.0],
		"type":"VEC3",
		"componentType":5126,
		"count":164,
		"byteOffset":12,
		"max":[1.0,
		1.0,
		1.0]
	},
	{
		"bufferView":1,
		"min":[0.0,
		0.0],
		"type":"VEC2",
		"componentType":5126,
		"count":164,
		"byteOffset":24,
		"max":[1.0,
		1.0]
	},
	{
		"bufferView":2,
		"min":[0],
		"type":"SCALAR",
		"componentType":5123,
		"count":864,
		"byteOffset":0,
		"max":[403]
	},
	{
		"bufferView":3,
		"min":[-2.8906872272491457,
		-0.19272755086421967,
		0.21937492489814759],
		"type":"VEC3",
		"componentType":5126,
		"count":404,
		"byteOffset":0,
		"max":[2.483715295791626,
		5.248284339904785,
		1.102526068687439]
	},
	{
		"bufferView":3,
		"min":[-1.0,
		-1.0,
		-1.0],
		"type":"VEC3",
		"componentType":5126,
		"count":404,
		"byteOffset":12,
		"max":[1.0,
		1.0,
		1.0]
	},
	{
		"bufferView":3,
		"min":[0.0,
		0.0],
		"type":"VEC2",
		"componentType":5126,
		"count":404,
		"byteOffset":24,
		"max":[1.0,
		1.0]
	},
	{
		"bufferView":4,
		"min":[0],
		"type":"SCALAR",
		"componentType":5123,
		"count":36,
		"byteOffset":0,
		"max":[23]
	},
	{
		"bufferView":5,
		"min":[-2.888479709625244,
		-2.139897346496582,
		-1.9035475254058838],
		"type":"VEC3",
		"componentType":5126,
		"count":24,
		"byteOffset":0,
		"max":[2.4833626747131349,
		-1.5556597709655762,
		1.1010262966156006]
	},
	{
		"bufferView":5,
		"min":[-1.0,
		-1.0,
		-1.0],
		"type":"VEC3",
		"componentType":5126,
		"count":24,
		"byteOffset":12,
		"max":[1.0,
		1.0,
		1.0]
	},
	{
		"bufferView":5,
		"min":[0.0,
		0.0],
		"type":"VEC2",
		"componentType":5126,
		"count":24,
		"byteOffset":24,
		"max":[1.0,
		1.0]
	},
	{
		"bufferView":6,
		"min":[0],
		"type":"SCALAR",
		"componentType":5123,
		"count":1476,
		"byteOffset":0,
		"max":[673]
	},
	{
		"bufferView":7,
		"min":[-2.8906872272491457,
		-1.5527275800704957,
		-1.0281004905700684],
		"type":"VEC3",
		"componentType":5126,
		"count":674,
		"byteOffset":0,
		"max":[2.483715295791626,
		5.248284339904785,
		1.102526068687439]
	},
	{
		"bufferView":7,
		"min":[-1.0,
		-1.0,
		-1.0],
		"type":"VEC3",
		"componentType":5126,
		"count":674,
		"byteOffset":12,
		"max":[1.0,
		1.0,
		1.0]
	},
	{
		"bufferView":7,
		"min":[0.0,
		0.0],
		"type":"VEC2",
		"componentType":5126,
		"count":674,
		"byteOffset":24,
		"max":[1.0,
		1.0]
	}],
	"bufferViews":[{
		"buffer":0,
		"byteOffset":0,
		"byteLength":672,
		"target":34963
	},
	{
		"buffer":0,
		"byteOffset":672,
		"byteLength":5248,
		"target":34962,
		"byteStride":32
	},
	{
		"buffer":1,
		"byteOffset":0,
		"byteLength":1728,
		"target":34963
	},
	{
		"buffer":1,
		"byteOffset":1728,
		"byteLength":12928,
		"target":34962,
		"byteStride":32
	},
	{
		"buffer":2,
		"byteOffset":0,
		"byteLength":72,
		"target":34963
	},
	{
		"buffer":2,
		"byteOffset":72,
		"byteLength":768,
		"target":34962,
		"byteStride":32
	},
	{
		"buffer":3,
		"byteOffset":0,
		"byteLength":2952,
		"target":34963
	},
	{
		"buffer":3,
		"byteOffset":2952,
		"byteLength":21568,
		"target":34962,
		"byteStride":32
	}],
	"buffers":[{
		"uri":"data:application/octet-stream;base64,",
		"byteLength":5920
	},
	{
		"uri":"data:application/octet-stream;base64,",
		"byteLength":14656
	},
	{
		"uri":"data:application/octet-stream;base64,",
		"byteLength":840
	},
	{
		"uri":"data:application/octet-stream;base64,",
		"byteLength":24520
	}],
	"materials":[{
		"pbrMetallicRoughness":{
			"baseColorFactor":[0.5882352941176471,
			0.6980392156862745,
			0.7450980392156863,
			1.0],
			"metallicFactor":0.08,
			"roughnessFactor":0.0
		},
		"emissiveFactor":[0.0,
		0.0,
		0.0],
		"alphaMode":"OPAQUE",
		"doubleSided":false,
		"name":"材质.11"
	},
	{
		"pbrMetallicRoughness":{
			"baseColorFactor":[0.7843137254901961,
			0.7843137254901961,
			0.7843137254901961,
			1.0],
			"metallicFactor":0.08,
			"roughnessFactor":0.0
		},
		"emissiveFactor":[0.0,
		0.0,
		0.0],
		"alphaMode":"OPAQUE",
		"doubleSided":false,
		"name":"材质.10"
	},
	{
		"pbrMetallicRoughness":{
			"baseColorFactor":[0.20392156862745096,
			0.2588235294117645,
			0.5372549019607843,
			1.0],
			"metallicFactor":0.08,
			"roughnessFactor":0.0
		},
		"emissiveFactor":[0.0,
		0.0,
		0.0],
		"alphaMode":"OPAQUE",
		"doubleSided":false,
		"name":"材质.9"
	}]
}