{
	"asset":{
		"version":"2.0",
		"generator":"Created using the official Cinema 4D glTF Exporter 1.000x284978"
	},
	"scenes":[{
		"nodes":[0]
	}],
	"nodes":[{
		"name":"柜子",
		"children":[1,
		10,
		11,
		12]
	},
	{
		"name":"空白.3",
		"translation":[0.40501946210861208,
		-0.13110795617103578,
		0.8757291436195374],
		"rotation":[-0.5,
		0.5,
		0.5,
		0.5],
		"scale":[1.0,
		1.0,
		1.0],
		"children":[2,
		3,
		4,
		5,
		6,
		7,
		8,
		9]
	},
	{
		"name":"Box130",
		"translation":[0.027479728683829309,
		-1.4866265058517457,
		1.566201090812683],
		"rotation":[0.0,
		0.0,
		0.0,
		-1.0],
		"scale":[1.0,
		1.0,
		1.0],
		"mesh":0
	},
	{
		"name":"Box131",
		"translation":[-0.08243918418884278,
		-1.3383772373199463,
		0.1984778344631195],
		"rotation":[0.0,
		0.0,
		0.0,
		-1.0],
		"scale":[1.0,
		1.0,
		1.0],
		"mesh":1
	},
	{
		"name":"Box132",
		"translation":[-0.08243918418884278,
		2.2177746295928957,
		-1.1791255474090577],
		"rotation":[0.0,
		0.0,
		0.0,
		-1.0],
		"scale":[1.0,
		1.0,
		1.0],
		"mesh":2
	},
	{
		"name":"Box133",
		"translation":[0.027479728683829309,
		1.1894042491912842,
		1.5503233671188355],
		"rotation":[0.0,
		0.0,
		0.0,
		-1.0],
		"scale":[1.0,
		1.0,
		1.0],
		"mesh":3
	},
	{
		"name":"Box134",
		"translation":[0.027479728683829309,
		1.1894042491912842,
		0.17104490101337434],
		"rotation":[0.0,
		0.0,
		0.0,
		-1.0],
		"scale":[1.0,
		1.0,
		1.0],
		"mesh":4
	},
	{
		"name":"Box135",
		"translation":[0.027479728683829309,
		-0.16829495131969453,
		2.232435703277588],
		"rotation":[0.0,
		0.0,
		0.0,
		-1.0],
		"scale":[1.0,
		1.0,
		1.0],
		"mesh":5
	},
	{
		"name":"Box136",
		"translation":[0.027479728683829309,
		-0.16781355440616609,
		-2.6534717082977297],
		"rotation":[0.0,
		0.0,
		0.0,
		-1.0],
		"scale":[1.0,
		1.0,
		1.0],
		"mesh":6
	},
	{
		"name":"Box137",
		"translation":[0.027479728683829309,
		-1.5247104167938233,
		-1.8858855962753297],
		"rotation":[0.0,
		0.0,
		0.0,
		-1.0],
		"scale":[1.0,
		1.0,
		1.0],
		"mesh":7
	},
	{
		"name":"立方体.1",
		"translation":[-0.00009757578663993627,
		0.06232386827468872,
		-0.2536024749279022],
		"rotation":[0.0,
		0.0,
		0.0,
		-1.0],
		"scale":[1.0,
		1.0,
		1.0],
		"mesh":8
	},
	{
		"name":"立方体",
		"translation":[-0.00009757578663993627,
		-3.4008514881134035,
		1.0714223384857178],
		"rotation":[0.0,
		0.0,
		0.0,
		-1.0],
		"scale":[1.0,
		1.0,
		1.0],
		"mesh":9
	},
	{
		"name":"克隆.2",
		"translation":[0.00019515157327987254,
		0.29470548033714297,
		1.0698604583740235],
		"rotation":[0.0,
		0.0,
		0.0,
		-1.0],
		"scale":[1.0,
		1.0,
		1.0],
		"children":[13,
		14,
		15]
	},
	{
		"name":"克隆.2-材质.9",
		"mesh":10
	},
	{
		"name":"克隆.2-材质.11",
		"mesh":11
	},
	{
		"name":"克隆.2-材质.10",
		"mesh":12
	}],
	"buffers":[{
		"uri":"data:application/octet-stream;base64,",
		"byteLength":712
	},
	{
		"uri":"data:application/octet-stream;base64,",
		"byteLength":712
	},
	{
		"uri":"data:application/octet-stream;base64,",
		"byteLength":712
	},
	{
		"uri":"data:application/octet-stream;base64,",
		"byteLength":712
	},
	{
		"uri":"data:application/octet-stream;base64,",
		"byteLength":712
	},
	{
		"uri":"data:application/octet-stream;base64,",
		"byteLength":852
	},
	{
		"uri":"data:application/octet-stream;base64,",
		"byteLength":712
	},
	{
		"uri":"data:application/octet-stream;base64,",
		"byteLength":852
	},
	{
		"uri":"data:application/octet-stream;base64,",
		"byteLength":840
	},
	{
		"uri":"data:application/octet-stream;base64,",
		"byteLength":840
	},
	{
		"uri":"data:application/octet-stream;base64,",
		"byteLength":23680
	},
	{
		"uri":"data:application/octet-stream;base64,",
		"byteLength":5920
	},
	{
		"uri":"data:application/octet-stream;base64,",
		"byteLength":14656
	}],
	"meshes":[{
		"name":"Box130",
		"primitives":[{
			"attributes":{
				"POSITION":1,
				"NORMAL":2,
				"TEXCOORD_0":3
			},
			"indices":0,
			"material":0
		}]
	},
	{
		"name":"Box131",
		"primitives":[{
			"attributes":{
				"POSITION":5,
				"NORMAL":6,
				"TEXCOORD_0":7
			},
			"indices":4,
			"material":1
		}]
	},
	{
		"name":"Box132",
		"primitives":[{
			"attributes":{
				"POSITION":9,
				"NORMAL":10,
				"TEXCOORD_0":11
			},
			"indices":8,
			"material":2
		}]
	},
	{
		"name":"Box133",
		"primitives":[{
			"attributes":{
				"POSITION":13,
				"NORMAL":14,
				"TEXCOORD_0":15
			},
			"indices":12,
			"material":3
		}]
	},
	{
		"name":"Box134",
		"primitives":[{
			"attributes":{
				"POSITION":17,
				"NORMAL":18,
				"TEXCOORD_0":19
			},
			"indices":16,
			"material":4
		}]
	},
	{
		"name":"Box135",
		"primitives":[{
			"attributes":{
				"POSITION":21,
				"NORMAL":22,
				"TEXCOORD_0":23
			},
			"indices":20,
			"material":5
		}]
	},
	{
		"name":"Box136",
		"primitives":[{
			"attributes":{
				"POSITION":25,
				"NORMAL":26,
				"TEXCOORD_0":27
			},
			"indices":24,
			"material":6
		}]
	},
	{
		"name":"Box137",
		"primitives":[{
			"attributes":{
				"POSITION":29,
				"NORMAL":30,
				"TEXCOORD_0":31
			},
			"indices":28,
			"material":7
		}]
	},
	{
		"name":"立方体.1",
		"primitives":[{
			"attributes":{
				"POSITION":33,
				"NORMAL":34,
				"TEXCOORD_0":35
			},
			"indices":32,
			"material":8
		}]
	},
	{
		"name":"立方体",
		"primitives":[{
			"attributes":{
				"POSITION":37,
				"NORMAL":38,
				"TEXCOORD_0":39
			},
			"indices":36,
			"material":9
		}]
	},
	{
		"name":"克隆.2-材质.9",
		"primitives":[{
			"attributes":{
				"POSITION":41,
				"NORMAL":42,
				"TEXCOORD_0":43
			},
			"indices":40,
			"material":8
		}]
	},
	{
		"name":"克隆.2-材质.11",
		"primitives":[{
			"attributes":{
				"POSITION":45,
				"NORMAL":46,
				"TEXCOORD_0":47
			},
			"indices":44,
			"material":9
		}]
	},
	{
		"name":"克隆.2-材质.10",
		"primitives":[{
			"attributes":{
				"POSITION":49,
				"NORMAL":50,
				"TEXCOORD_0":51
			},
			"indices":48,
			"material":10
		}]
	}],
	"accessors":[{
		"max":[19],
		"bufferView":0,
		"type":"SCALAR",
		"componentType":5123,
		"count":36,
		"byteOffset":0,
		"min":[0]
	},
	{
		"max":[0.17779584228992463,
		0.27728450298309328,
		0.39027273654937746],
		"bufferView":1,
		"type":"VEC3",
		"componentType":5126,
		"count":20,
		"byteOffset":0,
		"min":[-0.17779584228992463,
		-0.27728450298309328,
		-0.39027273654937746]
	},
	{
		"max":[0.8619202971458435,
		0.8164958357810974,
		0.908719003200531],
		"bufferView":1,
		"type":"VEC3",
		"componentType":5126,
		"count":20,
		"byteOffset":12,
		"min":[-0.7419759035110474,
		-0.8165355920791626,
		-0.8619879484176636]
	},
	{
		"max":[1.0,
		1.0],
		"bufferView":1,
		"type":"VEC2",
		"componentType":5126,
		"count":20,
		"byteOffset":24,
		"min":[0.0,
		0.0]
	},
	{
		"max":[19],
		"bufferView":2,
		"type":"SCALAR",
		"componentType":5123,
		"count":36,
		"byteOffset":0,
		"min":[0]
	},
	{
		"max":[0.32178694009780886,
		0.32178694009780886,
		0.39027273654937746],
		"bufferView":3,
		"type":"VEC3",
		"componentType":5126,
		"count":20,
		"byteOffset":0,
		"min":[-0.32178694009780886,
		-0.32178694009780886,
		-0.39027273654937746]
	},
	{
		"max":[0.9504671692848206,
		0.8451866507530212,
		0.9087193012237549],
		"bufferView":3,
		"type":"VEC3",
		"componentType":5126,
		"count":20,
		"byteOffset":12,
		"min":[-0.8263893127441406,
		-0.9960539937019348,
		-0.86200350522995]
	},
	{
		"max":[1.0,
		1.0],
		"bufferView":3,
		"type":"VEC2",
		"componentType":5126,
		"count":20,
		"byteOffset":24,
		"min":[0.0,
		0.0]
	},
	{
		"max":[19],
		"bufferView":4,
		"type":"SCALAR",
		"componentType":5123,
		"count":36,
		"byteOffset":0,
		"min":[0]
	},
	{
		"max":[0.32178694009780886,
		0.32178694009780886,
		0.3902725279331207],
		"bufferView":5,
		"type":"VEC3",
		"componentType":5126,
		"count":20,
		"byteOffset":0,
		"min":[-0.32178694009780886,
		-0.32178694009780886,
		-0.3902725279331207]
	},
	{
		"max":[0.845186710357666,
		0.8263892531394959,
		0.9087193608283997],
		"bufferView":5,
		"type":"VEC3",
		"componentType":5126,
		"count":20,
		"byteOffset":12,
		"min":[-0.9960539937019348,
		-0.9504671096801758,
		-0.8620035648345947]
	},
	{
		"max":[1.0,
		1.0],
		"bufferView":5,
		"type":"VEC2",
		"componentType":5126,
		"count":20,
		"byteOffset":24,
		"min":[0.0,
		0.0]
	},
	{
		"max":[19],
		"bufferView":6,
		"type":"SCALAR",
		"componentType":5123,
		"count":36,
		"byteOffset":0,
		"min":[0]
	},
	{
		"max":[0.17779584228992463,
		0.27728450298309328,
		0.39027273654937746],
		"bufferView":7,
		"type":"VEC3",
		"componentType":5126,
		"count":20,
		"byteOffset":0,
		"min":[-0.17779584228992463,
		-0.27728450298309328,
		-0.39027273654937746]
	},
	{
		"max":[0.8619202971458435,
		0.8164958357810974,
		0.908719003200531],
		"bufferView":7,
		"type":"VEC3",
		"componentType":5126,
		"count":20,
		"byteOffset":12,
		"min":[-0.7419759035110474,
		-0.8165355920791626,
		-0.8619879484176636]
	},
	{
		"max":[1.0,
		1.0],
		"bufferView":7,
		"type":"VEC2",
		"componentType":5126,
		"count":20,
		"byteOffset":24,
		"min":[0.0,
		0.0]
	},
	{
		"max":[19],
		"bufferView":8,
		"type":"SCALAR",
		"componentType":5123,
		"count":36,
		"byteOffset":0,
		"min":[0]
	},
	{
		"max":[0.17779584228992463,
		0.27728450298309328,
		0.39027273654937746],
		"bufferView":9,
		"type":"VEC3",
		"componentType":5126,
		"count":20,
		"byteOffset":0,
		"min":[-0.17779584228992463,
		-0.27728450298309328,
		-0.39027273654937746]
	},
	{
		"max":[0.8619202971458435,
		0.8164958357810974,
		0.908719003200531],
		"bufferView":9,
		"type":"VEC3",
		"componentType":5126,
		"count":20,
		"byteOffset":12,
		"min":[-0.7419759035110474,
		-0.8165355920791626,
		-0.8619879484176636]
	},
	{
		"max":[1.0,
		1.0],
		"bufferView":9,
		"type":"VEC2",
		"componentType":5126,
		"count":20,
		"byteOffset":24,
		"min":[0.0,
		0.0]
	},
	{
		"max":[23],
		"bufferView":10,
		"type":"SCALAR",
		"componentType":5123,
		"count":42,
		"byteOffset":0,
		"min":[0]
	},
	{
		"max":[0.17779584228992463,
		0.27728450298309328,
		1.0723850727081299],
		"bufferView":11,
		"type":"VEC3",
		"componentType":5126,
		"count":24,
		"byteOffset":0,
		"min":[-0.17779584228992463,
		-0.27728450298309328,
		-1.0723850727081299]
	},
	{
		"max":[0.8619202971458435,
		0.8164958357810974,
		0.908719003200531],
		"bufferView":11,
		"type":"VEC3",
		"componentType":5126,
		"count":24,
		"byteOffset":12,
		"min":[-0.9329551458358765,
		-0.8165355920791626,
		-0.8619879484176636]
	},
	{
		"max":[1.0,
		1.0],
		"bufferView":11,
		"type":"VEC2",
		"componentType":5126,
		"count":24,
		"byteOffset":24,
		"min":[0.0,
		0.0]
	},
	{
		"max":[19],
		"bufferView":12,
		"type":"SCALAR",
		"componentType":5123,
		"count":36,
		"byteOffset":0,
		"min":[0]
	},
	{
		"max":[0.17779584228992463,
		0.27728450298309328,
		0.390272319316864],
		"bufferView":13,
		"type":"VEC3",
		"componentType":5126,
		"count":20,
		"byteOffset":0,
		"min":[-0.17779584228992463,
		-0.27728450298309328,
		-0.390272319316864]
	},
	{
		"max":[0.8619203567504883,
		0.8164958357810974,
		0.9087190628051758],
		"bufferView":13,
		"type":"VEC3",
		"componentType":5126,
		"count":20,
		"byteOffset":12,
		"min":[-0.7419757843017578,
		-0.8165356516838074,
		-0.8619880080223084]
	},
	{
		"max":[1.0,
		1.0],
		"bufferView":13,
		"type":"VEC2",
		"componentType":5126,
		"count":20,
		"byteOffset":24,
		"min":[0.0,
		0.0]
	},
	{
		"max":[23],
		"bufferView":14,
		"type":"SCALAR",
		"componentType":5123,
		"count":42,
		"byteOffset":0,
		"min":[0]
	},
	{
		"max":[0.17779584228992463,
		0.27728450298309328,
		1.075986623764038],
		"bufferView":15,
		"type":"VEC3",
		"componentType":5126,
		"count":24,
		"byteOffset":0,
		"min":[-0.17779584228992463,
		-0.27728450298309328,
		-1.075986623764038]
	},
	{
		"max":[0.8619203567504883,
		0.8164958357810974,
		0.9087190628051758],
		"bufferView":15,
		"type":"VEC3",
		"componentType":5126,
		"count":24,
		"byteOffset":12,
		"min":[-0.9329551458358765,
		-0.8165356516838074,
		-0.8619877696037293]
	},
	{
		"max":[1.0,
		1.0],
		"bufferView":15,
		"type":"VEC2",
		"componentType":5126,
		"count":24,
		"byteOffset":24,
		"min":[0.0,
		0.0]
	},
	{
		"max":[23],
		"bufferView":16,
		"type":"SCALAR",
		"componentType":5123,
		"count":36,
		"byteOffset":0,
		"min":[0]
	},
	{
		"max":[2.6859211921691896,
		3.628878116607666,
		0.8862466216087341],
		"bufferView":17,
		"type":"VEC3",
		"componentType":5126,
		"count":24,
		"byteOffset":0,
		"min":[-2.6859211921691896,
		-3.1623833179473879,
		-0.36558812856674197]
	},
	{
		"max":[1.0,
		1.0,
		1.0],
		"bufferView":17,
		"type":"VEC3",
		"componentType":5126,
		"count":24,
		"byteOffset":12,
		"min":[-1.0,
		-1.0,
		-1.0]
	},
	{
		"max":[1.0,
		1.0],
		"bufferView":17,
		"type":"VEC2",
		"componentType":5126,
		"count":24,
		"byteOffset":24,
		"min":[0.0,
		0.0]
	},
	{
		"max":[23],
		"bufferView":18,
		"type":"SCALAR",
		"componentType":5123,
		"count":36,
		"byteOffset":0,
		"min":[0]
	},
	{
		"max":[2.6859211921691896,
		0.29211878776550295,
		0.43851396441459658],
		"bufferView":19,
		"type":"VEC3",
		"componentType":5126,
		"count":24,
		"byteOffset":0,
		"min":[-2.6859211921691896,
		-0.29211878776550295,
		-2.5660598278045656]
	},
	{
		"max":[1.0,
		1.0,
		1.0],
		"bufferView":19,
		"type":"VEC3",
		"componentType":5126,
		"count":24,
		"byteOffset":12,
		"min":[-1.0,
		-1.0,
		-1.0]
	},
	{
		"max":[1.0,
		1.0],
		"bufferView":19,
		"type":"VEC2",
		"componentType":5126,
		"count":24,
		"byteOffset":24,
		"min":[0.0,
		0.0]
	},
	{
		"max":[649],
		"bufferView":20,
		"type":"SCALAR",
		"componentType":5123,
		"count":1440,
		"byteOffset":0,
		"min":[0]
	},
	{
		"max":[2.685981035232544,
		3.400506019592285,
		0.4415755867958069],
		"bufferView":21,
		"type":"VEC3",
		"componentType":5126,
		"count":650,
		"byteOffset":0,
		"min":[-2.6884212493896486,
		-3.400506019592285,
		-0.4415755867958069]
	},
	{
		"max":[1.0,
		1.0,
		1.0],
		"bufferView":21,
		"type":"VEC3",
		"componentType":5126,
		"count":650,
		"byteOffset":12,
		"min":[-1.0,
		-1.0,
		-1.0]
	},
	{
		"max":[1.0,
		1.0],
		"bufferView":21,
		"type":"VEC2",
		"componentType":5126,
		"count":650,
		"byteOffset":24,
		"min":[0.0,
		0.0]
	},
	{
		"max":[163],
		"bufferView":22,
		"type":"SCALAR",
		"componentType":5123,
		"count":336,
		"byteOffset":0,
		"min":[0]
	},
	{
		"max":[2.685981035232544,
		2.04050612449646,
		0.4415755867958069],
		"bufferView":23,
		"type":"VEC3",
		"componentType":5126,
		"count":164,
		"byteOffset":0,
		"min":[-2.6884212493896486,
		-3.400506019592285,
		-0.4415755867958069]
	},
	{
		"max":[1.0,
		1.0,
		1.0],
		"bufferView":23,
		"type":"VEC3",
		"componentType":5126,
		"count":164,
		"byteOffset":12,
		"min":[-1.0,
		-1.0,
		-1.0]
	},
	{
		"max":[1.0,
		1.0],
		"bufferView":23,
		"type":"VEC2",
		"componentType":5126,
		"count":164,
		"byteOffset":24,
		"min":[0.0,
		0.0]
	},
	{
		"max":[403],
		"bufferView":24,
		"type":"SCALAR",
		"componentType":5123,
		"count":864,
		"byteOffset":0,
		"min":[0]
	},
	{
		"max":[2.685981035232544,
		3.400506019592285,
		0.4415755867958069],
		"bufferView":25,
		"type":"VEC3",
		"componentType":5126,
		"count":404,
		"byteOffset":0,
		"min":[-2.6884212493896486,
		-2.04050612449646,
		-0.4415755867958069]
	},
	{
		"max":[1.0,
		1.0,
		1.0],
		"bufferView":25,
		"type":"VEC3",
		"componentType":5126,
		"count":404,
		"byteOffset":12,
		"min":[-1.0,
		-1.0,
		-1.0]
	},
	{
		"max":[1.0,
		1.0],
		"bufferView":25,
		"type":"VEC2",
		"componentType":5126,
		"count":404,
		"byteOffset":24,
		"min":[0.0,
		0.0]
	}],
	"bufferViews":[{
		"buffer":0,
		"byteOffset":0,
		"byteLength":72,
		"target":34963
	},
	{
		"buffer":0,
		"byteOffset":72,
		"byteLength":640,
		"target":34962,
		"byteStride":32
	},
	{
		"buffer":1,
		"byteOffset":0,
		"byteLength":72,
		"target":34963
	},
	{
		"buffer":1,
		"byteOffset":72,
		"byteLength":640,
		"target":34962,
		"byteStride":32
	},
	{
		"buffer":2,
		"byteOffset":0,
		"byteLength":72,
		"target":34963
	},
	{
		"buffer":2,
		"byteOffset":72,
		"byteLength":640,
		"target":34962,
		"byteStride":32
	},
	{
		"buffer":3,
		"byteOffset":0,
		"byteLength":72,
		"target":34963
	},
	{
		"buffer":3,
		"byteOffset":72,
		"byteLength":640,
		"target":34962,
		"byteStride":32
	},
	{
		"buffer":4,
		"byteOffset":0,
		"byteLength":72,
		"target":34963
	},
	{
		"buffer":4,
		"byteOffset":72,
		"byteLength":640,
		"target":34962,
		"byteStride":32
	},
	{
		"buffer":5,
		"byteOffset":0,
		"byteLength":84,
		"target":34963
	},
	{
		"buffer":5,
		"byteOffset":84,
		"byteLength":768,
		"target":34962,
		"byteStride":32
	},
	{
		"buffer":6,
		"byteOffset":0,
		"byteLength":72,
		"target":34963
	},
	{
		"buffer":6,
		"byteOffset":72,
		"byteLength":640,
		"target":34962,
		"byteStride":32
	},
	{
		"buffer":7,
		"byteOffset":0,
		"byteLength":84,
		"target":34963
	},
	{
		"buffer":7,
		"byteOffset":84,
		"byteLength":768,
		"target":34962,
		"byteStride":32
	},
	{
		"buffer":8,
		"byteOffset":0,
		"byteLength":72,
		"target":34963
	},
	{
		"buffer":8,
		"byteOffset":72,
		"byteLength":768,
		"target":34962,
		"byteStride":32
	},
	{
		"buffer":9,
		"byteOffset":0,
		"byteLength":72,
		"target":34963
	},
	{
		"buffer":9,
		"byteOffset":72,
		"byteLength":768,
		"target":34962,
		"byteStride":32
	},
	{
		"buffer":10,
		"byteOffset":0,
		"byteLength":2880,
		"target":34963
	},
	{
		"buffer":10,
		"byteOffset":2880,
		"byteLength":20800,
		"target":34962,
		"byteStride":32
	},
	{
		"buffer":11,
		"byteOffset":0,
		"byteLength":672,
		"target":34963
	},
	{
		"buffer":11,
		"byteOffset":672,
		"byteLength":5248,
		"target":34962,
		"byteStride":32
	},
	{
		"buffer":12,
		"byteOffset":0,
		"byteLength":1728,
		"target":34963
	},
	{
		"buffer":12,
		"byteOffset":1728,
		"byteLength":12928,
		"target":34962,
		"byteStride":32
	}],
	"images":[{
		"uri":"data:image/jpeg;base64,"
	},
	{
		"uri":"data:image/jpeg;base64,"
	},
	{
		"uri":"data:image/jpeg;base64,"
	},
	{
		"uri":"data:image/jpeg;base64,"
	},
	{
		"uri":"data:image/jpeg;base64,"
	},
	{
		"uri":"data:image/jpeg;base64,"
	},
	{
		"uri":"data:image/jpeg;base64,"
	}],
	"samplers":[{
		"magFilter":9729,
		"minFilter":9729,
		"wrapS":10497,
		"wrapT":10497
	},
	{
		"magFilter":9729,
		"minFilter":9729,
		"wrapS":10497,
		"wrapT":10497
	},
	{
		"magFilter":9729,
		"minFilter":9729,
		"wrapS":10497,
		"wrapT":10497
	},
	{
		"magFilter":9729,
		"minFilter":9729,
		"wrapS":10497,
		"wrapT":10497
	},
	{
		"magFilter":9729,
		"minFilter":9729,
		"wrapS":10497,
		"wrapT":10497
	},
	{
		"magFilter":9729,
		"minFilter":9729,
		"wrapS":10497,
		"wrapT":10497
	},
	{
		"magFilter":9729,
		"minFilter":9729,
		"wrapS":10497,
		"wrapT":10497
	},
	{
		"magFilter":9729,
		"minFilter":9729,
		"wrapS":10497,
		"wrapT":10497
	}],
	"textures":[{
		"sampler":0,
		"source":0
	},
	{
		"sampler":1,
		"source":1
	},
	{
		"sampler":2,
		"source":2
	},
	{
		"sampler":3,
		"source":3
	},
	{
		"sampler":4,
		"source":1
	},
	{
		"sampler":5,
		"source":4
	},
	{
		"sampler":6,
		"source":5
	},
	{
		"sampler":7,
		"source":6
	}],
	"materials":[{
		"pbrMetallicRoughness":{
			"baseColorTexture":{
				"index":0
			},
			"baseColorFactor":[0.8,
			0.8,
			0.8,
			1.0],
			"metallicFactor":0.0,
			"roughnessFactor":0.5
		},
		"emissiveFactor":[0.0,
		0.0,
		0.0],
		"alphaMode":"OPAQUE",
		"doubleSided":false,
		"name":"材质.1"
	},
	{
		"pbrMetallicRoughness":{
			"baseColorTexture":{
				"index":1
			},
			"baseColorFactor":[0.8,
			0.8,
			0.8,
			1.0],
			"metallicFactor":0.0,
			"roughnessFactor":0.5
		},
		"emissiveFactor":[0.0,
		0.0,
		0.0],
		"alphaMode":"OPAQUE",
		"doubleSided":false,
		"name":"材质.3"
	},
	{
		"pbrMetallicRoughness":{
			"baseColorTexture":{
				"index":2
			},
			"baseColorFactor":[0.8,
			0.8,
			0.8,
			1.0],
			"metallicFactor":0.0,
			"roughnessFactor":0.5
		},
		"emissiveFactor":[0.0,
		0.0,
		0.0],
		"alphaMode":"OPAQUE",
		"doubleSided":false,
		"name":"材质.5"
	},
	{
		"pbrMetallicRoughness":{
			"baseColorTexture":{
				"index":3
			},
			"baseColorFactor":[0.8,
			0.8,
			0.8,
			1.0],
			"metallicFactor":0.0,
			"roughnessFactor":0.5
		},
		"emissiveFactor":[0.0,
		0.0,
		0.0],
		"alphaMode":"OPAQUE",
		"doubleSided":false,
		"name":"材质.8"
	},
	{
		"pbrMetallicRoughness":{
			"baseColorTexture":{
				"index":4
			},
			"baseColorFactor":[0.8,
			0.8,
			0.8,
			1.0],
			"metallicFactor":0.0,
			"roughnessFactor":0.5
		},
		"emissiveFactor":[0.0,
		0.0,
		0.0],
		"alphaMode":"OPAQUE",
		"doubleSided":false,
		"name":"材质.4"
	},
	{
		"pbrMetallicRoughness":{
			"baseColorTexture":{
				"index":5
			},
			"baseColorFactor":[0.8,
			0.8,
			0.8,
			1.0],
			"metallicFactor":0.0,
			"roughnessFactor":0.5
		},
		"emissiveFactor":[0.0,
		0.0,
		0.0],
		"alphaMode":"OPAQUE",
		"doubleSided":false,
		"name":"材质"
	},
	{
		"pbrMetallicRoughness":{
			"baseColorTexture":{
				"index":6
			},
			"baseColorFactor":[0.8,
			0.8,
			0.8,
			1.0],
			"metallicFactor":0.0,
			"roughnessFactor":0.5
		},
		"emissiveFactor":[0.0,
		0.0,
		0.0],
		"alphaMode":"OPAQUE",
		"doubleSided":false,
		"name":"材质.6"
	},
	{
		"pbrMetallicRoughness":{
			"baseColorTexture":{
				"index":7
			},
			"baseColorFactor":[0.8,
			0.8,
			0.8,
			1.0],
			"metallicFactor":0.0,
			"roughnessFactor":0.5
		},
		"emissiveFactor":[0.0,
		0.0,
		0.0],
		"alphaMode":"OPAQUE",
		"doubleSided":false,
		"name":"材质.2"
	},
	{
		"pbrMetallicRoughness":{
			"baseColorFactor":[0.20392156862745096,
			0.2588235294117645,
			0.5372549019607843,
			1.0],
			"metallicFactor":0.08,
			"roughnessFactor":0.0
		},
		"emissiveFactor":[0.0,
		0.0,
		0.0],
		"alphaMode":"OPAQUE",
		"doubleSided":false,
		"name":"材质.9"
	},
	{
		"pbrMetallicRoughness":{
			"baseColorFactor":[0.5882352941176471,
			0.6980392156862745,
			0.7450980392156863,
			1.0],
			"metallicFactor":0.08,
			"roughnessFactor":0.0
		},
		"emissiveFactor":[0.0,
		0.0,
		0.0],
		"alphaMode":"OPAQUE",
		"doubleSided":false,
		"name":"材质.11"
	},
	{
		"pbrMetallicRoughness":{
			"baseColorFactor":[0.7843137254901961,
			0.7843137254901961,
			0.7843137254901961,
			1.0],
			"metallicFactor":0.08,
			"roughnessFactor":0.0
		},
		"emissiveFactor":[0.0,
		0.0,
		0.0],
		"alphaMode":"OPAQUE",
		"doubleSided":false,
		"name":"材质.10"
	}]
}