{
	"asset":{
		"version":"2.0",
		"generator":"Created using the official Cinema 4D glTF Exporter 1.000x284978"
	},
	"scenes":[{
		"nodes":[0]
	}],
	"nodes":[{
		"name":"立方体",
		"mesh":0
	}],
	"meshes":[{
		"name":"立方体",
		"primitives":[{
			"attributes":{
				"POSITION":1,
				"NORMAL":2,
				"TEXCOORD_0":3
			},
			"indices":0,
			"material":0
		}]
	}],
	"accessors":[{
		"bufferView":0,
		"min":[0],
		"type":"SCALAR",
		"componentType":5123,
		"count":36,
		"byteOffset":0,
		"max":[23]
	},
	{
		"bufferView":1,
		"min":[-7.598923206329346,
		-1.3264962434768677,
		-1.2393616437911988],
		"type":"VEC3",
		"componentType":5126,
		"count":24,
		"byteOffset":0,
		"max":[7.598923206329346,
		1.3264962434768677,
		1.2393616437911988]
	},
	{
		"bufferView":1,
		"min":[-1.0,
		-1.0,
		-1.0],
		"type":"VEC3",
		"componentType":5126,
		"count":24,
		"byteOffset":12,
		"max":[1.0,
		1.0,
		1.0]
	},
	{
		"bufferView":1,
		"min":[0.0,
		0.0],
		"type":"VEC2",
		"componentType":5126,
		"count":24,
		"byteOffset":24,
		"max":[1.0,
		1.0]
	}],
	"bufferViews":[{
		"buffer":0,
		"byteOffset":0,
		"byteLength":72,
		"target":34963
	},
	{
		"buffer":0,
		"byteOffset":72,
		"byteLength":768,
		"target":34962,
		"byteStride":32
	}],
	"buffers":[{
		"uri":"data:application/octet-stream;base64,",
		"byteLength":840
	}],
	"materials":[{
		"pbrMetallicRoughness":{
			"baseColorFactor":[0.3098039215686275,
			0.2980392156862745,
			0.6,
			1.0],
			"metallicFactor":0.08,
			"roughnessFactor":0.5
		},
		"emissiveFactor":[0.0,
		0.0,
		0.0],
		"alphaMode":"OPAQUE",
		"doubleSided":false,
		"name":"材质"
	}]
}