{
	"asset":{
		"version":"2.0",
		"generator":"Created using the official Cinema 4D glTF Exporter 1.000x284978"
	},
	"buffers":[{
		"uri":"data:application/octet-stream;base64,",
		"byteLength":881544
	}],
	"scenes":[{
		"nodes":[0]
	}],
	"nodes":[{
		"name":"",
		"mesh":0
	}],
	"meshes":[{
		"name":"",
		"primitives":[{
			"attributes":{
				"POSITION":1,
				"NORMAL":2,
				"TEXCOORD_0":3
			},
			"indices":0,
			"material":0
		}]
	}],
	"accessors":[{
		"bufferView":0,
		"type":"SCALAR",
		"max":[20714],
		"componentType":5123,
		"count":109332,
		"byteOffset":0,
		"min":[0]
	},
	{
		"bufferView":1,
		"type":"VEC3",
		"max":[7.559116363525391,
		1.3009190559387208,
		1.4525816440582276],
		"componentType":5126,
		"count":20715,
		"byteOffset":0,
		"min":[-7.214086055755615,
		-1.3009190559387208,
		-1.4421744346618653]
	},
	{
		"bufferView":1,
		"type":"VEC3",
		"max":[0.9999968409538269,
		0.9999579787254334,
		1.0],
		"componentType":5126,
		"count":20715,
		"byteOffset":12,
		"min":[-0.9999968409538269,
		-1.0,
		-0.9967834949493408]
	},
	{
		"bufferView":1,
		"type":"VEC2",
		"max":[48.83623504638672,
		58.89302062988281],
		"componentType":5126,
		"count":20715,
		"byteOffset":24,
		"min":[-47.836402893066409,
		-57.319068908691409]
	}],
	"bufferViews":[{
		"target":34963,
		"buffer":0,
		"byteOffset":0,
		"byteLength":218664
	},
	{
		"target":34962,
		"buffer":0,
		"byteOffset":218664,
		"byteStride":32,
		"byteLength":662880
	}],
	"materials":[{
		"pbrMetallicRoughness":{
			"baseColorFactor":[0.3098039215686275,
			0.2980392156862745,
			0.6,
			1.0],
			"metallicFactor":0.08,
			"roughnessFactor":0.5
		},
		"emissiveFactor":[0.0,
		0.0,
		0.0],
		"alphaMode":"OPAQUE",
		"doubleSided":false,
		"name":""
	}]
}