{
	"nodes":[{
		"name":"圆柱.8",
		"children":[1,
		2]
	},
	{
		"name":"圆柱.8",
		"mesh":0
	},
	{
		"name":"圆柱.8-材质",
		"mesh":1
	}],
	"asset":{
		"version":"2.0",
		"generator":"Created using the official Cinema 4D glTF Exporter 1.000x284978"
	},
	"buffers":[{
		"uri":"data:application/octet-stream;base64,",
		"byteLength":56000
	},
	{
		"uri":"data:application/octet-stream;base64,",
		"byteLength":736
	}],
	"scenes":[{
		"nodes":[0]
	}],
	"meshes":[{
		"name":"圆柱.8",
		"primitives":[{
			"attributes":{
				"POSITION":1,
				"NORMAL":2,
				"TEXCOORD_0":3
			},
			"indices":0
		}]
	},
	{
		"name":"圆柱.8-材质",
		"primitives":[{
			"attributes":{
				"POSITION":5,
				"NORMAL":6,
				"TEXCOORD_0":7
			},
			"indices":4,
			"material":0
		}]
	}],
	"bufferViews":[{
		"buffer":0,
		"byteLength":8640,
		"byteOffset":0,
		"target":34963
	},
	{
		"buffer":0,
		"byteLength":47360,
		"byteOffset":8640,
		"target":34962,
		"byteStride":32
	},
	{
		"buffer":1,
		"byteLength":96,
		"byteOffset":0,
		"target":34963
	},
	{
		"buffer":1,
		"byteLength":640,
		"byteOffset":96,
		"target":34962,
		"byteStride":32
	}],
	"accessors":[{
		"bufferView":0,
		"type":"SCALAR",
		"componentType":5123,
		"count":4320,
		"byteOffset":0,
		"min":[0],
		"max":[1479]
	},
	{
		"bufferView":1,
		"type":"VEC3",
		"componentType":5126,
		"count":1480,
		"byteOffset":0,
		"min":[-28.472829818725587,
		-8.20671272277832,
		-20.641515731811525],
		"max":[28.472829818725587,
		8.20671272277832,
		20.641515731811525]
	},
	{
		"bufferView":1,
		"type":"VEC3",
		"componentType":5126,
		"count":1480,
		"byteOffset":12,
		"min":[-1.0,
		-1.0,
		-1.0],
		"max":[1.0,
		1.0,
		1.0]
	},
	{
		"bufferView":1,
		"type":"VEC2",
		"componentType":5126,
		"count":1480,
		"byteOffset":24,
		"min":[0.0,
		0.0],
		"max":[1.0,
		1.0]
	},
	{
		"bufferView":2,
		"type":"SCALAR",
		"componentType":5123,
		"count":48,
		"byteOffset":0,
		"min":[0],
		"max":[19]
	},
	{
		"bufferView":3,
		"type":"VEC3",
		"componentType":5126,
		"count":20,
		"byteOffset":0,
		"min":[-16.937652587890626,
		-0.8652527332305908,
		-9.569440841674805],
		"max":[16.923473358154298,
		8.155025482177735,
		9.56258773803711]
	},
	{
		"bufferView":3,
		"type":"VEC3",
		"componentType":5126,
		"count":20,
		"byteOffset":12,
		"min":[-0.017781250178813936,
		0.7352187633514404,
		-0.6775000095367432],
		"max":[0.017781250178813936,
		0.7430312633514404,
		0.6775000095367432]
	},
	{
		"bufferView":3,
		"type":"VEC2",
		"componentType":5126,
		"count":20,
		"byteOffset":24,
		"min":[0.0,
		0.0],
		"max":[1.0,
		1.0]
	}],
	"materials":[{
		"pbrMetallicRoughness":{
			"baseColorFactor":[0.9411764705882353,
			0.8666666666666667,
			0.7333333333333333,
			1.0],
			"metallicFactor":0.08,
			"roughnessFactor":0.5
		},
		"emissiveFactor":[0.0,
		0.0,
		0.0],
		"alphaMode":"OPAQUE",
		"doubleSided":false,
		"name":"材质"
	}]
}