{
	"asset":{
		"version":"2.0",
		"generator":"Created using the official Cinema 4D glTF Exporter 1.000x284978"
	},
	"textures":[{
		"sampler":0,
		"source":0
	},
	{
		"sampler":1,
		"source":1
	},
	{
		"sampler":2,
		"source":2
	}],
	"scenes":[{
		"nodes":[0]
	}],
	"nodes":[{
		"translation":[-0.02294248156249523,
		0.4421556890010834,
		2.045546770095825],
		"name":"摊位",
		"scale":[1.0,
		1.0,
		1.0],
		"rotation":[0.0,
		0.0,
		0.0,
		-1.0],
		"children":[1,
		3]
	},
	{
		"translation":[0.07279486209154129,
		1.829549789428711,
		-4.034948348999023],
		"name":"布",
		"scale":[1.0,
		1.0,
		1.0],
		"rotation":[0.7071067690849304,
		0.0,
		0.0,
		-0.7071067690849304],
		"children":[2]
	},
	{
		"translation":[0.07883495092391968,
		-1.9971039295196534,
		2.2568023204803469],
		"name":"Obj3d66_1632542_7_128",
		"scale":[1.0,
		1.0,
		1.0],
		"rotation":[3.9732356792008706e-17,
		-1.2246468525851679e-16,
		1.0,
		-6.123234262925839e-17],
		"mesh":0
	},
	{
		"translation":[-0.07279486209154129,
		-1.829549789428711,
		4.034948348999023],
		"name":"立方体.1",
		"scale":[1.0,
		1.0,
		1.0],
		"rotation":[0.0,
		0.0,
		0.0,
		-1.0],
		"children":[4,
		5,
		6,
		7,
		8,
		9,
		10,
		11]
	},
	{
		"name":"立方体.1-材质.4",
		"mesh":1
	},
	{
		"name":"立方体.1-材质.2",
		"mesh":2
	},
	{
		"name":"立方体.1-材质.1",
		"mesh":3
	},
	{
		"name":"立方体.1-材质.3",
		"mesh":4
	},
	{
		"name":"立方体.1-材质.3",
		"mesh":5
	},
	{
		"name":"立方体.1-材质.3",
		"mesh":6
	},
	{
		"name":"立方体.1-材质1",
		"mesh":7
	},
	{
		"name":"立方体.1-材质",
		"mesh":8
	}],
	"samplers":[{
		"magFilter":9729,
		"minFilter":9729,
		"wrapS":10497,
		"wrapT":10497
	},
	{
		"magFilter":9729,
		"minFilter":9729,
		"wrapS":10497,
		"wrapT":10497
	},
	{
		"magFilter":9729,
		"minFilter":9729,
		"wrapS":10497,
		"wrapT":10497
	}],
	"meshes":[{
		"name":"Obj3d66_1632542_7_128",
		"primitives":[{
			"attributes":{
				"POSITION":1,
				"NORMAL":2,
				"TEXCOORD_0":3
			},
			"indices":0,
			"material":0
		}]
	},
	{
		"name":"立方体.1-材质.4",
		"primitives":[{
			"attributes":{
				"POSITION":5,
				"NORMAL":6,
				"TEXCOORD_0":7
			},
			"indices":4,
			"material":1
		}]
	},
	{
		"name":"立方体.1-材质.2",
		"primitives":[{
			"attributes":{
				"POSITION":9,
				"NORMAL":10,
				"TEXCOORD_0":11
			},
			"indices":8,
			"material":2
		}]
	},
	{
		"name":"立方体.1-材质.1",
		"primitives":[{
			"attributes":{
				"POSITION":13,
				"NORMAL":14,
				"TEXCOORD_0":15
			},
			"indices":12,
			"material":0
		}]
	},
	{
		"name":"立方体.1-材质.3",
		"primitives":[{
			"attributes":{
				"POSITION":17,
				"NORMAL":18,
				"TEXCOORD_0":19
			},
			"indices":16,
			"material":3
		}]
	},
	{
		"name":"立方体.1-材质.3",
		"primitives":[{
			"attributes":{
				"POSITION":21,
				"NORMAL":22,
				"TEXCOORD_0":23
			},
			"indices":20,
			"material":3
		}]
	},
	{
		"name":"立方体.1-材质.3",
		"primitives":[{
			"attributes":{
				"POSITION":25,
				"NORMAL":26,
				"TEXCOORD_0":27
			},
			"indices":24,
			"material":3
		}]
	},
	{
		"name":"立方体.1-材质1",
		"primitives":[{
			"attributes":{
				"POSITION":29,
				"NORMAL":30,
				"TEXCOORD_0":31
			},
			"indices":28,
			"material":4
		}]
	},
	{
		"name":"立方体.1-材质",
		"primitives":[{
			"attributes":{
				"POSITION":33,
				"NORMAL":34,
				"TEXCOORD_0":35
			},
			"indices":32,
			"material":5
		}]
	}],
	"accessors":[{
		"bufferView":0,
		"min":[0],
		"type":"SCALAR",
		"componentType":5123,
		"count":36,
		"byteOffset":0,
		"max":[16]
	},
	{
		"bufferView":1,
		"min":[-3.7547287940979006,
		-3.816317319869995,
		-0.0036289526615291836],
		"type":"VEC3",
		"componentType":5126,
		"count":17,
		"byteOffset":0,
		"max":[3.7547287940979006,
		3.816317319869995,
		0.0036289526615291836]
	},
	{
		"bufferView":1,
		"min":[-0.6680734753608704,
		-0.8156501054763794,
		-0.816447377204895],
		"type":"VEC3",
		"componentType":5126,
		"count":17,
		"byteOffset":12,
		"max":[0.8173875212669373,
		0.6673813462257385,
		0.6666143536567688]
	},
	{
		"bufferView":1,
		"min":[0.0,
		0.0],
		"type":"VEC2",
		"componentType":5126,
		"count":17,
		"byteOffset":24,
		"max":[1.0,
		1.0]
	},
	{
		"bufferView":2,
		"min":[0],
		"type":"SCALAR",
		"componentType":5123,
		"count":6,
		"byteOffset":0,
		"max":[3]
	},
	{
		"bufferView":3,
		"min":[-3.2836551666259767,
		-3.0463173389434816,
		-9.846940040588379],
		"type":"VEC3",
		"componentType":5126,
		"count":4,
		"byteOffset":0,
		"max":[3.5843448638916017,
		5.7166829109191898,
		-9.846940040588379]
	},
	{
		"bufferView":3,
		"min":[-0.577343761920929,
		-0.577343761920929,
		0.577343761920929],
		"type":"VEC3",
		"componentType":5126,
		"count":4,
		"byteOffset":12,
		"max":[0.577343761920929,
		0.577343761920929,
		0.577343761920929]
	},
	{
		"bufferView":3,
		"min":[0.0,
		0.09259258955717087],
		"type":"VEC2",
		"componentType":5126,
		"count":4,
		"byteOffset":24,
		"max":[1.0,
		1.0185184478759766]
	},
	{
		"bufferView":4,
		"min":[0],
		"type":"SCALAR",
		"componentType":5123,
		"count":336,
		"byteOffset":0,
		"max":[64]
	},
	{
		"bufferView":5,
		"min":[3.5850932598114015,
		-3.121955633163452,
		-9.917604446411133],
		"type":"VEC3",
		"componentType":5126,
		"count":65,
		"byteOffset":0,
		"max":[3.7464091777801515,
		5.860148906707764,
		-2.2993667125701906]
	},
	{
		"bufferView":5,
		"min":[-0.8947187662124634,
		-1.0,
		-0.9930625557899475],
		"type":"VEC3",
		"componentType":5126,
		"count":65,
		"byteOffset":12,
		"max":[0.9891563057899475,
		0.8894375562667847,
		0.7627500295639038]
	},
	{
		"bufferView":5,
		"min":[0.012600000016391278,
		0.0],
		"type":"VEC2",
		"componentType":5126,
		"count":65,
		"byteOffset":24,
		"max":[1.0,
		1.0]
	},
	{
		"bufferView":6,
		"min":[0],
		"type":"SCALAR",
		"componentType":5123,
		"count":5856,
		"byteOffset":0,
		"max":[1498]
	},
	{
		"bufferView":7,
		"min":[-17.117374420166017,
		-3.1219630241394045,
		-9.917264938354493],
		"type":"VEC3",
		"componentType":5126,
		"count":1499,
		"byteOffset":0,
		"max":[3.7601261138916017,
		10.669434547424317,
		65.43914794921875]
	},
	{
		"bufferView":7,
		"min":[-1.0,
		-0.9927188158035278,
		-0.9993125200271606],
		"type":"VEC3",
		"componentType":5126,
		"count":1499,
		"byteOffset":12,
		"max":[1.0,
		1.0,
		0.9930625557899475]
	},
	{
		"bufferView":7,
		"min":[0.0,
		0.0],
		"type":"VEC2",
		"componentType":5126,
		"count":1499,
		"byteOffset":24,
		"max":[1.0,
		1.0]
	},
	{
		"bufferView":8,
		"min":[0],
		"type":"SCALAR",
		"componentType":5123,
		"count":6,
		"byteOffset":0,
		"max":[3]
	},
	{
		"bufferView":9,
		"min":[-3.1219961643218996,
		-3.071371555328369,
		-4.8900604248046879],
		"type":"VEC3",
		"componentType":5126,
		"count":4,
		"byteOffset":0,
		"max":[-3.1219961643218996,
		-0.17937155067920686,
		-2.727060317993164]
	},
	{
		"bufferView":9,
		"min":[-0.577343761920929,
		-0.577343761920929,
		-0.577343761920929],
		"type":"VEC3",
		"componentType":5126,
		"count":4,
		"byteOffset":12,
		"max":[-0.577343761920929,
		0.577343761920929,
		0.577343761920929]
	},
	{
		"bufferView":9,
		"min":[0.0,
		0.0],
		"type":"VEC2",
		"componentType":5126,
		"count":4,
		"byteOffset":24,
		"max":[1.0,
		1.0]
	},
	{
		"bufferView":10,
		"min":[0],
		"type":"SCALAR",
		"componentType":5123,
		"count":6,
		"byteOffset":0,
		"max":[3]
	},
	{
		"bufferView":11,
		"min":[3.423003911972046,
		-3.071371555328369,
		-4.8900604248046879],
		"type":"VEC3",
		"componentType":5126,
		"count":4,
		"byteOffset":0,
		"max":[3.423003911972046,
		-0.17937155067920686,
		-2.727060317993164]
	},
	{
		"bufferView":11,
		"min":[0.577343761920929,
		-0.577343761920929,
		-0.577343761920929],
		"type":"VEC3",
		"componentType":5126,
		"count":4,
		"byteOffset":12,
		"max":[0.577343761920929,
		0.577343761920929,
		0.577343761920929]
	},
	{
		"bufferView":11,
		"min":[0.0,
		0.0],
		"type":"VEC2",
		"componentType":5126,
		"count":4,
		"byteOffset":24,
		"max":[1.0,
		1.0]
	},
	{
		"bufferView":12,
		"min":[0],
		"type":"SCALAR",
		"componentType":5123,
		"count":6,
		"byteOffset":0,
		"max":[3]
	},
	{
		"bufferView":13,
		"min":[-3.1219961643218996,
		-0.17937155067920686,
		-4.8900604248046879],
		"type":"VEC3",
		"componentType":5126,
		"count":4,
		"byteOffset":0,
		"max":[3.423003911972046,
		-0.17937155067920686,
		-2.727060317993164]
	},
	{
		"bufferView":13,
		"min":[-0.577343761920929,
		0.577343761920929,
		-0.577343761920929],
		"type":"VEC3",
		"componentType":5126,
		"count":4,
		"byteOffset":12,
		"max":[0.577343761920929,
		0.577343761920929,
		0.577343761920929]
	},
	{
		"bufferView":13,
		"min":[0.0,
		0.0],
		"type":"VEC2",
		"componentType":5126,
		"count":4,
		"byteOffset":24,
		"max":[1.0,
		1.0]
	},
	{
		"bufferView":14,
		"min":[0],
		"type":"SCALAR",
		"componentType":5123,
		"count":18,
		"byteOffset":0,
		"max":[11]
	},
	{
		"bufferView":15,
		"min":[-3.1219961643218996,
		-3.071371555328369,
		-4.8900604248046879],
		"type":"VEC3",
		"componentType":5126,
		"count":12,
		"byteOffset":0,
		"max":[3.423003911972046,
		-0.17937155067920686,
		-2.727060317993164]
	},
	{
		"bufferView":15,
		"min":[-0.577343761920929,
		-0.577343761920929,
		-0.577343761920929],
		"type":"VEC3",
		"componentType":5126,
		"count":12,
		"byteOffset":12,
		"max":[0.577343761920929,
		0.577343761920929,
		0.577343761920929]
	},
	{
		"bufferView":15,
		"min":[-0.029999999329447748,
		3.469446951953614e-18],
		"type":"VEC2",
		"componentType":5126,
		"count":12,
		"byteOffset":24,
		"max":[0.9700000286102295,
		1.0]
	},
	{
		"bufferView":16,
		"min":[0],
		"type":"SCALAR",
		"componentType":5123,
		"count":30,
		"byteOffset":0,
		"max":[15]
	},
	{
		"bufferView":17,
		"min":[-3.2836551666259767,
		-3.0463173389434816,
		-10.011940002441407],
		"type":"VEC3",
		"componentType":5126,
		"count":16,
		"byteOffset":0,
		"max":[3.5843448638916017,
		5.7166829109191898,
		-9.846940040588379]
	},
	{
		"bufferView":17,
		"min":[-0.577343761920929,
		-0.577343761920929,
		-0.577343761920929],
		"type":"VEC3",
		"componentType":5126,
		"count":16,
		"byteOffset":12,
		"max":[0.577343761920929,
		0.577343761920929,
		0.577343761920929]
	},
	{
		"bufferView":17,
		"min":[-0.75,
		-0.5],
		"type":"VEC2",
		"componentType":5126,
		"count":16,
		"byteOffset":24,
		"max":[1.75,
		2.0]
	}],
	"bufferViews":[{
		"buffer":0,
		"byteOffset":0,
		"byteLength":72,
		"target":34963
	},
	{
		"buffer":0,
		"byteOffset":72,
		"byteLength":544,
		"target":34962,
		"byteStride":32
	},
	{
		"buffer":1,
		"byteOffset":0,
		"byteLength":12,
		"target":34963
	},
	{
		"buffer":1,
		"byteOffset":12,
		"byteLength":128,
		"target":34962,
		"byteStride":32
	},
	{
		"buffer":2,
		"byteOffset":0,
		"byteLength":672,
		"target":34963
	},
	{
		"buffer":2,
		"byteOffset":672,
		"byteLength":2080,
		"target":34962,
		"byteStride":32
	},
	{
		"buffer":3,
		"byteOffset":0,
		"byteLength":11712,
		"target":34963
	},
	{
		"buffer":3,
		"byteOffset":11712,
		"byteLength":47968,
		"target":34962,
		"byteStride":32
	},
	{
		"buffer":4,
		"byteOffset":0,
		"byteLength":12,
		"target":34963
	},
	{
		"buffer":4,
		"byteOffset":12,
		"byteLength":128,
		"target":34962,
		"byteStride":32
	},
	{
		"buffer":5,
		"byteOffset":0,
		"byteLength":12,
		"target":34963
	},
	{
		"buffer":5,
		"byteOffset":12,
		"byteLength":128,
		"target":34962,
		"byteStride":32
	},
	{
		"buffer":6,
		"byteOffset":0,
		"byteLength":12,
		"target":34963
	},
	{
		"buffer":6,
		"byteOffset":12,
		"byteLength":128,
		"target":34962,
		"byteStride":32
	},
	{
		"buffer":7,
		"byteOffset":0,
		"byteLength":36,
		"target":34963
	},
	{
		"buffer":7,
		"byteOffset":36,
		"byteLength":384,
		"target":34962,
		"byteStride":32
	},
	{
		"buffer":8,
		"byteOffset":0,
		"byteLength":60,
		"target":34963
	},
	{
		"buffer":8,
		"byteOffset":60,
		"byteLength":512,
		"target":34962,
		"byteStride":32
	}],
	"buffers":[{
		"uri":"data:application/octet-stream;base64,",
		"byteLength":616
	},
	{
		"uri":"data:application/octet-stream;base64,",
		"byteLength":140
	},
	{
		"uri":"data:application/octet-stream;base64,",
		"byteLength":2752
	},
	{
		"uri":"data:application/octet-stream;base64,",
		"byteLength":59680
	},
	{
		"uri":"data:application/octet-stream;base64,",
		"byteLength":140
	},
	{
		"uri":"data:application/octet-stream;base64,",
		"byteLength":140
	},
	{
		"uri":"data:application/octet-stream;base64,",
		"byteLength":140
	},
	{
		"uri":"data:application/octet-stream;base64,",
		"byteLength":420
	},
	{
		"uri":"data:application/octet-stream;base64,",
		"byteLength":572
	}],
	"images":[{
		"uri":"data:image/jpeg;base64,"
	},
	{
		"uri":"data:image/jpeg;base64,"
	},
	{
		"uri":"data:image/jpeg;base64,"
	}],
	"materials":[{
		"pbrMetallicRoughness":{
			"baseColorFactor":[0.8,
			0.8,
			0.8,
			1.0],
			"metallicFactor":0.0,
			"roughnessFactor":0.88
		},
		"emissiveFactor":[0.0,
		0.0,
		0.0],
		"alphaMode":"OPAQUE",
		"doubleSided":false,
		"name":"材质.1"
	},
	{
		"pbrMetallicRoughness":{
			"baseColorTexture":{
				"index":0
			},
			"baseColorFactor":[0.8,
			0.8,
			0.8,
			1.0],
			"metallicFactor":0.0,
			"roughnessFactor":0.5
		},
		"emissiveFactor":[0.0,
		0.0,
		0.0],
		"alphaMode":"OPAQUE",
		"doubleSided":false,
		"name":"材质.4"
	},
	{
		"pbrMetallicRoughness":{
			"baseColorFactor":[0.8,
			0.8,
			0.8,
			1.0],
			"metallicFactor":0.44,
			"roughnessFactor":0.0
		},
		"emissiveFactor":[0.0,
		0.0,
		0.0],
		"alphaMode":"OPAQUE",
		"doubleSided":false,
		"name":"材质.2"
	},
	{
		"pbrMetallicRoughness":{
			"baseColorFactor":[0.14901960784313723,
			0.3019607843137257,
			0.6078431372549019,
			1.0],
			"metallicFactor":0.0,
			"roughnessFactor":0.5
		},
		"emissiveFactor":[0.0,
		0.0,
		0.0],
		"alphaMode":"OPAQUE",
		"doubleSided":false,
		"name":"材质.3"
	},
	{
		"pbrMetallicRoughness":{
			"baseColorTexture":{
				"index":1
			},
			"baseColorFactor":[0.8,
			0.8,
			0.8,
			1.0],
			"metallicFactor":0.0,
			"roughnessFactor":0.5
		},
		"emissiveFactor":[0.0,
		0.0,
		0.0],
		"alphaMode":"OPAQUE",
		"doubleSided":false,
		"name":"材质1"
	},
	{
		"pbrMetallicRoughness":{
			"baseColorTexture":{
				"index":2
			},
			"baseColorFactor":[0.784,
			0.7866352941176471,
			0.8,
			1.0],
			"metallicFactor":0.0,
			"roughnessFactor":0.88
		},
		"emissiveFactor":[0.0,
		0.0,
		0.0],
		"alphaMode":"OPAQUE",
		"doubleSided":false,
		"name":"材质"
	}]
}