{
	"asset":{
		"version":"2.0",
		"generator":"Created using the official Cinema 4D glTF Exporter 1.000x284978"
	},
	"scenes":[{
		"nodes":[0]
	}],
	"nodes":[{
		"name":"栏杆",
		"children":[1,
		2]
	},
	{
		"name":"栏杆-材质",
		"mesh":0
	},
	{
		"name":"栏杆-材质",
		"mesh":1
	}],
	"bufferViews":[{
		"buffer":0,
		"byteOffset":0,
		"target":34963,
		"byteLength":368544
	},
	{
		"buffer":0,
		"byteOffset":368544,
		"target":34962,
		"byteLength":386496
	},
	{
		"buffer":1,
		"byteOffset":0,
		"target":34963,
		"byteLength":15840
	},
	{
		"buffer":1,
		"byteOffset":15840,
		"target":34962,
		"byteLength":31680
	}],
	"meshes":[{
		"name":"栏杆-材质",
		"primitives":[{
			"attributes":{
				"POSITION":1
			},
			"material":0,
			"indices":0
		}]
	},
	{
		"name":"栏杆-材质",
		"primitives":[{
			"attributes":{
				"POSITION":3
			},
			"material":1,
			"indices":2
		}]
	}],
	"accessors":[{
		"bufferView":0,
		"type":"SCALAR",
		"componentType":5123,
		"count":184272,
		"max":[32207],
		"byteOffset":0,
		"min":[0]
	},
	{
		"bufferView":1,
		"type":"VEC3",
		"componentType":5126,
		"count":32208,
		"max":[10.73701000213623,
		2.3248298168182375,
		36.3025016784668],
		"byteOffset":0,
		"min":[-10.73701000213623,
		-2.3248298168182375,
		-36.3025016784668]
	},
	{
		"bufferView":2,
		"type":"SCALAR",
		"componentType":5123,
		"count":7920,
		"max":[2639],
		"byteOffset":0,
		"min":[0]
	},
	{
		"bufferView":3,
		"type":"VEC3",
		"componentType":5126,
		"count":2640,
		"max":[10.271590232849121,
		2.3248298168182375,
		35.445430755615237],
		"byteOffset":0,
		"min":[-9.807107925415039,
		-1.479974627494812,
		-36.2996711730957]
	}],
	"buffers":[{
		"uri":"data:application/octet-stream;base64,",
		"byteLength":755040
	},
	{
		"uri":"data:application/octet-stream;base64,",
		"byteLength":47520
	}],
	"materials":[{
		"pbrMetallicRoughness":{
			"baseColorFactor":[0.7764705882352941,
			0.5882352941176472,
			0.20392156862745093,
			1.0],
			"metallicFactor":0.08,
			"roughnessFactor":0.5
		},
		"emissiveFactor":[0.0,
		0.0,
		0.0],
		"alphaMode":"OPAQUE",
		"doubleSided":true,
		"name":"材质"
	},
	{
		"pbrMetallicRoughness":{
			"baseColorFactor":[0.11764705882352941,
			0.11764705882352941,
			0.11764705882352941,
			1.0],
			"metallicFactor":0.08,
			"roughnessFactor":0.5
		},
		"emissiveFactor":[0.0,
		0.0,
		0.0],
		"alphaMode":"OPAQUE",
		"doubleSided":true,
		"name":"材质"
	}]
}