{
	"asset":{
		"version":"2.0",
		"generator":"Created using the official Cinema 4D glTF Exporter 1.000x284978"
	},
	"scenes":[{
		"nodes":[0]
	}],
	"textures":[{
		"sampler":0,
		"source":0
	},
	{
		"sampler":1,
		"source":1
	},
	{
		"sampler":2,
		"source":2
	}],
	"meshes":[{
		"name":"挤压.2-材质.1",
		"primitives":[{
			"attributes":{
				"POSITION":1,
				"NORMAL":2,
				"TEXCOORD_0":3
			},
			"indices":0,
			"material":0
		}]
	},
	{
		"name":"挤压.2-材质",
		"primitives":[{
			"attributes":{
				"POSITION":5,
				"NORMAL":6,
				"TEXCOORD_0":7
			},
			"indices":4,
			"material":1
		}]
	},
	{
		"name":"挤压.1",
		"primitives":[{
			"attributes":{
				"POSITION":9,
				"NORMAL":10,
				"TEXCOORD_0":11
			},
			"indices":8,
			"material":0
		}]
	},
	{
		"name":"挤压-材质.2",
		"primitives":[{
			"attributes":{
				"POSITION":13,
				"NORMAL":14,
				"TEXCOORD_0":15
			},
			"indices":12,
			"material":2
		}]
	},
	{
		"name":"挤压-材质.2",
		"primitives":[{
			"attributes":{
				"POSITION":17,
				"NORMAL":18,
				"TEXCOORD_0":19
			},
			"indices":16,
			"material":3
		}]
	},
	{
		"name":"挤压-材质.2",
		"primitives":[{
			"attributes":{
				"POSITION":21,
				"NORMAL":22,
				"TEXCOORD_0":23
			},
			"indices":20,
			"material":4
		}]
	},
	{
		"name":"挤压-材质.2",
		"primitives":[{
			"attributes":{
				"POSITION":25,
				"NORMAL":26,
				"TEXCOORD_0":27
			},
			"indices":24,
			"material":4
		}]
	},
	{
		"name":"挤压-材质.2",
		"primitives":[{
			"attributes":{
				"POSITION":29,
				"NORMAL":30,
				"TEXCOORD_0":31
			},
			"indices":28,
			"material":4
		}]
	},
	{
		"name":"挤压-材质.2",
		"primitives":[{
			"attributes":{
				"POSITION":33,
				"NORMAL":34,
				"TEXCOORD_0":35
			},
			"indices":32,
			"material":5
		}]
	},
	{
		"name":"挤压-材质.2",
		"primitives":[{
			"attributes":{
				"POSITION":37,
				"NORMAL":38,
				"TEXCOORD_0":39
			},
			"indices":36,
			"material":6
		}]
	},
	{
		"name":"挤压.7",
		"primitives":[{
			"attributes":{
				"POSITION":41,
				"NORMAL":42,
				"TEXCOORD_0":43
			},
			"indices":40,
			"material":7
		}]
	},
	{
		"name":"挤压.8",
		"primitives":[{
			"attributes":{
				"POSITION":45,
				"NORMAL":46,
				"TEXCOORD_0":47
			},
			"indices":44,
			"material":8
		}]
	},
	{
		"name":"挤压.9",
		"primitives":[{
			"attributes":{
				"POSITION":49,
				"NORMAL":50,
				"TEXCOORD_0":51
			},
			"indices":48,
			"material":9
		}]
	}],
	"nodes":[{
		"name":"置物架",
		"children":[1,
		4,
		5,
		13,
		15,
		17]
	},
	{
		"name":"挤压.2",
		"translation":[-4.513630390167236,
		-4.4799346923828129,
		0.13058283925056458],
		"rotation":[0.0,
		0.0,
		0.0,
		-1.0],
		"scale":[1.0,
		1.0,
		1.0],
		"children":[2,
		3]
	},
	{
		"name":"挤压.2-材质.1",
		"mesh":0
	},
	{
		"name":"挤压.2-材质",
		"mesh":1
	},
	{
		"name":"挤压.1",
		"translation":[-0.6904110312461853,
		2.1750495433807375,
		0.1729627102613449],
		"rotation":[0.0,
		0.0,
		0.0,
		-1.0],
		"scale":[1.0,
		1.0,
		1.0],
		"mesh":2
	},
	{
		"name":"挤压",
		"translation":[-0.9665194153785706,
		2.481046676635742,
		0.00971597246825695],
		"rotation":[0.0,
		0.0,
		0.0,
		-1.0],
		"scale":[1.0,
		1.0,
		1.0],
		"children":[6,
		7,
		8,
		9,
		10,
		11,
		12]
	},
	{
		"name":"挤压-材质.2",
		"mesh":3
	},
	{
		"name":"挤压-材质.2",
		"mesh":4
	},
	{
		"name":"挤压-材质.2",
		"mesh":5
	},
	{
		"name":"挤压-材质.2",
		"mesh":6
	},
	{
		"name":"挤压-材质.2",
		"mesh":7
	},
	{
		"name":"挤压-材质.2",
		"mesh":8
	},
	{
		"name":"挤压-材质.2",
		"mesh":9
	},
	{
		"name":"挤压.7",
		"translation":[3.3177638053894045,
		3.9534502029418947,
		0.04030654579401016],
		"rotation":[0.0,
		-2.220446049250313e-16,
		0.0,
		-1.0],
		"scale":[1.0,
		1.0,
		1.0],
		"children":[14]
	},
	{
		"name":"挤压.7",
		"mesh":10
	},
	{
		"name":"挤压.8",
		"translation":[3.0198895931243898,
		-3.654167652130127,
		0.20284336805343629],
		"rotation":[2.9156561492942628e-17,
		2.2012201218833146e-16,
		0.13130947947502137,
		0.9913414120674133],
		"scale":[1.0,
		1.0,
		1.0],
		"children":[16]
	},
	{
		"name":"挤压.8",
		"mesh":11
	},
	{
		"name":"挤压.9",
		"translation":[-0.1670922189950943,
		-0.4754442274570465,
		-0.5564114451408386],
		"rotation":[0.0,
		-2.220446049250313e-16,
		0.0,
		-1.0],
		"scale":[1.0,
		1.0,
		1.0],
		"children":[18]
	},
	{
		"name":"挤压.9",
		"mesh":12
	}],
	"accessors":[{
		"byteOffset":0,
		"bufferView":0,
		"type":"SCALAR",
		"componentType":5123,
		"count":2187,
		"min":[0],
		"max":[780]
	},
	{
		"byteOffset":0,
		"bufferView":1,
		"type":"VEC3",
		"componentType":5126,
		"count":781,
		"min":[-1.8451273441314698,
		-1.2807815074920655,
		-0.05964573100209236],
		"max":[1.8451273441314698,
		1.2807815074920655,
		0.007278094533830881]
	},
	{
		"byteOffset":12,
		"bufferView":1,
		"type":"VEC3",
		"componentType":5126,
		"count":781,
		"min":[-1.0,
		-1.0,
		-1.0],
		"max":[1.0,
		1.0,
		0.0]
	},
	{
		"byteOffset":24,
		"bufferView":1,
		"type":"VEC2",
		"componentType":5126,
		"count":781,
		"min":[0.0,
		0.0],
		"max":[1.0,
		1.0]
	},
	{
		"byteOffset":0,
		"bufferView":2,
		"type":"SCALAR",
		"componentType":5123,
		"count":729,
		"min":[0],
		"max":[242]
	},
	{
		"byteOffset":0,
		"bufferView":3,
		"type":"VEC3",
		"componentType":5126,
		"count":243,
		"min":[-1.8451273441314698,
		-1.2807815074920655,
		0.007278094533830881],
		"max":[1.8451273441314698,
		1.2807815074920655,
		0.007278094533830881]
	},
	{
		"byteOffset":12,
		"bufferView":3,
		"type":"VEC3",
		"componentType":5126,
		"count":243,
		"min":[0.0,
		0.0,
		1.0],
		"max":[0.0,
		0.0,
		1.0]
	},
	{
		"byteOffset":24,
		"bufferView":3,
		"type":"VEC2",
		"componentType":5126,
		"count":243,
		"min":[0.0,
		0.0],
		"max":[1.0,
		0.9534341096878052]
	},
	{
		"byteOffset":0,
		"bufferView":4,
		"type":"SCALAR",
		"componentType":5123,
		"count":21120,
		"min":[0],
		"max":[10649]
	},
	{
		"byteOffset":0,
		"bufferView":5,
		"type":"VEC3",
		"componentType":5126,
		"count":10650,
		"min":[-6.264328956604004,
		-4.654468059539795,
		1.4152222416966704e-13],
		"max":[6.264328956604004,
		4.654468059539795,
		0.034125491976737979]
	},
	{
		"byteOffset":12,
		"bufferView":5,
		"type":"VEC3",
		"componentType":5126,
		"count":10650,
		"min":[-0.9996599555015564,
		-0.9998639822006226,
		-1.0],
		"max":[0.9998460412025452,
		0.9998630285263062,
		1.0]
	},
	{
		"byteOffset":24,
		"bufferView":5,
		"type":"VEC2",
		"componentType":5126,
		"count":10650,
		"min":[0.0,
		0.0],
		"max":[1.0,
		1.0]
	},
	{
		"byteOffset":0,
		"bufferView":6,
		"type":"SCALAR",
		"componentType":5123,
		"count":132,
		"min":[0],
		"max":[71]
	},
	{
		"byteOffset":0,
		"bufferView":7,
		"type":"VEC3",
		"componentType":5126,
		"count":72,
		"min":[2.3077590465545656,
		-4.193729877471924,
		1.0055496745594445e-13],
		"max":[7.297582626342773,
		-2.276505470275879,
		0.17062745988368989]
	},
	{
		"byteOffset":12,
		"bufferView":7,
		"type":"VEC3",
		"componentType":5126,
		"count":72,
		"min":[-0.9680938124656677,
		-0.9785937666893005,
		-1.0],
		"max":[0.986750066280365,
		0.9785937666893005,
		1.0]
	},
	{
		"byteOffset":24,
		"bufferView":7,
		"type":"VEC2",
		"componentType":5126,
		"count":72,
		"min":[0.0,
		0.0],
		"max":[1.0,
		1.0]
	},
	{
		"byteOffset":0,
		"bufferView":8,
		"type":"SCALAR",
		"componentType":5123,
		"count":132,
		"min":[0],
		"max":[71]
	},
	{
		"byteOffset":0,
		"bufferView":9,
		"type":"VEC3",
		"componentType":5126,
		"count":72,
		"min":[0.4583126902580261,
		0.5466780662536621,
		1.0052591761398541e-13],
		"max":[2.742934465408325,
		5.427978515625,
		0.17062745988368989]
	},
	{
		"byteOffset":12,
		"bufferView":9,
		"type":"VEC3",
		"componentType":5126,
		"count":72,
		"min":[-0.978937566280365,
		-0.9898750185966492,
		-1.0],
		"max":[0.9497500658035278,
		0.9986562728881836,
		1.0]
	},
	{
		"byteOffset":24,
		"bufferView":9,
		"type":"VEC2",
		"componentType":5126,
		"count":72,
		"min":[0.0,
		0.0],
		"max":[1.0,
		1.0]
	},
	{
		"byteOffset":0,
		"bufferView":10,
		"type":"SCALAR",
		"componentType":5123,
		"count":132,
		"min":[0],
		"max":[71]
	},
	{
		"byteOffset":0,
		"bufferView":11,
		"type":"VEC3",
		"componentType":5126,
		"count":72,
		"min":[-1.7254561185836793,
		0.7845461964607239,
		1.0049162294401698e-13],
		"max":[-0.3083741068840027,
		4.138719081878662,
		0.17062745988368989]
	},
	{
		"byteOffset":12,
		"bufferView":11,
		"type":"VEC3",
		"componentType":5126,
		"count":72,
		"min":[-0.9667813181877136,
		-0.979593813419342,
		-1.0],
		"max":[0.9667813181877136,
		0.9937812685966492,
		1.0]
	},
	{
		"byteOffset":24,
		"bufferView":11,
		"type":"VEC2",
		"componentType":5126,
		"count":72,
		"min":[0.0,
		0.0],
		"max":[1.0,
		1.0]
	},
	{
		"byteOffset":0,
		"bufferView":12,
		"type":"SCALAR",
		"componentType":5123,
		"count":60,
		"min":[0],
		"max":[35]
	},
	{
		"byteOffset":0,
		"bufferView":13,
		"type":"VEC3",
		"componentType":5126,
		"count":36,
		"min":[2.6341683864593508,
		-1.6070770025253297,
		1.0056009031120944e-13],
		"max":[6.0543904304504398,
		-0.7542580366134644,
		0.17062745988368989]
	},
	{
		"byteOffset":12,
		"bufferView":13,
		"type":"VEC3",
		"componentType":5126,
		"count":36,
		"min":[-0.5366250276565552,
		-0.999000072479248,
		-1.0],
		"max":[0.7525938153266907,
		0.999000072479248,
		1.0]
	},
	{
		"byteOffset":24,
		"bufferView":13,
		"type":"VEC2",
		"componentType":5126,
		"count":36,
		"min":[0.0,
		0.0],
		"max":[1.0,
		1.0]
	},
	{
		"byteOffset":0,
		"bufferView":14,
		"type":"SCALAR",
		"componentType":5123,
		"count":60,
		"min":[0],
		"max":[35]
	},
	{
		"byteOffset":0,
		"bufferView":15,
		"type":"VEC3",
		"componentType":5126,
		"count":36,
		"min":[-5.408975601196289,
		-5.427978515625,
		1.004337739818513e-13],
		"max":[-1.3315011262893677,
		-3.4590864181518556,
		0.17062745988368989]
	},
	{
		"byteOffset":12,
		"bufferView":15,
		"type":"VEC3",
		"componentType":5126,
		"count":36,
		"min":[-0.9114375710487366,
		-0.9435312747955322,
		-1.0],
		"max":[0.7585625648498535,
		0.982718825340271,
		1.0]
	},
	{
		"byteOffset":24,
		"bufferView":15,
		"type":"VEC2",
		"componentType":5126,
		"count":36,
		"min":[0.0,
		0.0],
		"max":[1.0,
		1.0]
	},
	{
		"byteOffset":0,
		"bufferView":16,
		"type":"SCALAR",
		"componentType":5123,
		"count":132,
		"min":[0],
		"max":[71]
	},
	{
		"byteOffset":0,
		"bufferView":17,
		"type":"VEC3",
		"componentType":5126,
		"count":72,
		"min":[-4.977666854858398,
		-2.5591683387756349,
		1.0044055024542933e-13],
		"max":[-1.9189531803131104,
		-1.4320605993270875,
		0.17062745988368989]
	},
	{
		"byteOffset":12,
		"bufferView":17,
		"type":"VEC3",
		"componentType":5126,
		"count":72,
		"min":[-0.990656316280365,
		-0.990656316280365,
		-1.0],
		"max":[0.9591875672340393,
		0.990656316280365,
		1.0]
	},
	{
		"byteOffset":24,
		"bufferView":17,
		"type":"VEC2",
		"componentType":5126,
		"count":72,
		"min":[0.0,
		0.0],
		"max":[1.0,
		1.0]
	},
	{
		"byteOffset":0,
		"bufferView":18,
		"type":"SCALAR",
		"componentType":5123,
		"count":84,
		"min":[0],
		"max":[47]
	},
	{
		"byteOffset":0,
		"bufferView":19,
		"type":"VEC3",
		"componentType":5126,
		"count":48,
		"min":[-7.297582626342773,
		-0.5501319766044617,
		1.0040411427617024e-13],
		"max":[-1.3553473949432374,
		2.461632013320923,
		0.17062745988368989]
	},
	{
		"byteOffset":12,
		"bufferView":19,
		"type":"VEC3",
		"componentType":5126,
		"count":48,
		"min":[-0.976312518119812,
		-0.9850000739097595,
		-1.0],
		"max":[0.7698437571525574,
		0.9095000624656677,
		1.0]
	},
	{
		"byteOffset":24,
		"bufferView":19,
		"type":"VEC2",
		"componentType":5126,
		"count":48,
		"min":[0.0,
		0.0],
		"max":[1.0,
		1.0]
	},
	{
		"byteOffset":0,
		"bufferView":20,
		"type":"SCALAR",
		"componentType":5123,
		"count":3672,
		"min":[0],
		"max":[1239]
	},
	{
		"byteOffset":0,
		"bufferView":21,
		"type":"VEC3",
		"componentType":5126,
		"count":1240,
		"min":[-2.1411826610565187,
		-1.882672905921936,
		-0.05000000074505806],
		"max":[2.1683695316314699,
		1.9160215854644776,
		5.2104472808827548e-14]
	},
	{
		"byteOffset":12,
		"bufferView":21,
		"type":"VEC3",
		"componentType":5126,
		"count":1240,
		"min":[-0.9999893307685852,
		-0.9999938011169434,
		-1.0],
		"max":[0.9999943971633911,
		0.9999983906745911,
		1.0]
	},
	{
		"byteOffset":24,
		"bufferView":21,
		"type":"VEC2",
		"componentType":5126,
		"count":1240,
		"min":[0.0,
		0.0],
		"max":[1.0,
		1.0]
	},
	{
		"byteOffset":0,
		"bufferView":22,
		"type":"SCALAR",
		"componentType":5123,
		"count":9288,
		"min":[0],
		"max":[3147]
	},
	{
		"byteOffset":0,
		"bufferView":23,
		"type":"VEC3",
		"componentType":5126,
		"count":3148,
		"min":[-1.8388664722442628,
		-1.971107006072998,
		-0.05000000074505806],
		"max":[1.8441206216812134,
		1.978311538696289,
		-1.374553547156196e-13]
	},
	{
		"byteOffset":12,
		"bufferView":23,
		"type":"VEC3",
		"componentType":5126,
		"count":3148,
		"min":[-1.0,
		-0.9999995231628418,
		-1.0],
		"max":[0.9999999403953552,
		1.0,
		1.0]
	},
	{
		"byteOffset":24,
		"bufferView":23,
		"type":"VEC2",
		"componentType":5126,
		"count":3148,
		"min":[0.0,
		0.0],
		"max":[1.0,
		1.0]
	},
	{
		"byteOffset":0,
		"bufferView":24,
		"type":"SCALAR",
		"componentType":5123,
		"count":1260,
		"min":[0],
		"max":[433]
	},
	{
		"byteOffset":0,
		"bufferView":25,
		"type":"VEC3",
		"componentType":5126,
		"count":434,
		"min":[-5.479374408721924,
		-5.223415374755859,
		-0.8999999761581421],
		"max":[5.479852199554443,
		5.222970962524414,
		6.1817216655876e-14]
	},
	{
		"byteOffset":12,
		"bufferView":25,
		"type":"VEC3",
		"componentType":5126,
		"count":434,
		"min":[-1.0,
		-1.0,
		-1.0],
		"max":[1.0,
		1.0,
		1.0]
	},
	{
		"byteOffset":24,
		"bufferView":25,
		"type":"VEC2",
		"componentType":5126,
		"count":434,
		"min":[0.0,
		0.0],
		"max":[1.0,
		1.0]
	}],
	"materials":[{
		"pbrMetallicRoughness":{
			"baseColorFactor":[0.8,
			0.8,
			0.8,
			1.0],
			"metallicFactor":0.09,
			"roughnessFactor":0.0
		},
		"emissiveFactor":[0.0,
		0.0,
		0.0],
		"alphaMode":"OPAQUE",
		"doubleSided":false,
		"name":"材质.1"
	},
	{
		"pbrMetallicRoughness":{
			"baseColorTexture":{
				"index":0
			},
			"baseColorFactor":[0.8,
			0.8,
			0.8,
			1.0],
			"metallicFactor":0.11,
			"roughnessFactor":0.0
		},
		"emissiveFactor":[0.0,
		0.0,
		0.0],
		"alphaMode":"OPAQUE",
		"doubleSided":false,
		"name":"材质"
	},
	{
		"pbrMetallicRoughness":{
			"baseColorFactor":[0.8509803921568627,
			0.32941176470588237,
			0.580392156862745,
			1.0],
			"metallicFactor":0.12,
			"roughnessFactor":0.0
		},
		"emissiveFactor":[0.0,
		0.0,
		0.0],
		"alphaMode":"OPAQUE",
		"doubleSided":false,
		"name":"材质.2"
	},
	{
		"pbrMetallicRoughness":{
			"baseColorFactor":[0.8823529411764706,
			0.3294117647058823,
			0.4627450980392157,
			1.0],
			"metallicFactor":0.12,
			"roughnessFactor":0.0
		},
		"emissiveFactor":[0.0,
		0.0,
		0.0],
		"alphaMode":"OPAQUE",
		"doubleSided":false,
		"name":"材质.2"
	},
	{
		"pbrMetallicRoughness":{
			"baseColorFactor":[0.18823529411764707,
			0.24705882352941159,
			0.6470588235294118,
			1.0],
			"metallicFactor":0.12,
			"roughnessFactor":0.0
		},
		"emissiveFactor":[0.0,
		0.0,
		0.0],
		"alphaMode":"OPAQUE",
		"doubleSided":false,
		"name":"材质.2"
	},
	{
		"pbrMetallicRoughness":{
			"baseColorFactor":[0.2823529411764706,
			0.6196078431372549,
			0.8705882352941177,
			1.0],
			"metallicFactor":0.12,
			"roughnessFactor":0.0
		},
		"emissiveFactor":[0.0,
		0.0,
		0.0],
		"alphaMode":"OPAQUE",
		"doubleSided":false,
		"name":"材质.2"
	},
	{
		"pbrMetallicRoughness":{
			"baseColorFactor":[0.8431372549019608,
			0.29803921568627436,
			0.1686274509803921,
			1.0],
			"metallicFactor":0.12,
			"roughnessFactor":0.0
		},
		"emissiveFactor":[0.0,
		0.0,
		0.0],
		"alphaMode":"OPAQUE",
		"doubleSided":false,
		"name":"材质.2"
	},
	{
		"pbrMetallicRoughness":{
			"baseColorTexture":{
				"index":1
			},
			"baseColorFactor":[0.8,
			0.8,
			0.8,
			1.0],
			"metallicFactor":0.08,
			"roughnessFactor":0.0
		},
		"emissiveFactor":[0.0,
		0.0,
		0.0],
		"alphaMode":"OPAQUE",
		"doubleSided":false,
		"name":"材质.3"
	},
	{
		"pbrMetallicRoughness":{
			"baseColorTexture":{
				"index":2
			},
			"baseColorFactor":[0.8,
			0.8,
			0.8,
			1.0],
			"metallicFactor":0.08,
			"roughnessFactor":0.0
		},
		"emissiveFactor":[0.0,
		0.0,
		0.0],
		"alphaMode":"OPAQUE",
		"doubleSided":false,
		"name":"材质.3"
	},
	{
		"pbrMetallicRoughness":{
			"baseColorFactor":[0.6431372549019608,
			0.7568627450980392,
			0.8156862745098039,
			1.0],
			"metallicFactor":0.12,
			"roughnessFactor":0.0
		},
		"emissiveFactor":[0.0,
		0.0,
		0.0],
		"alphaMode":"OPAQUE",
		"doubleSided":false,
		"name":"材质.2"
	}],
	"bufferViews":[{
		"buffer":0,
		"byteOffset":0,
		"byteLength":4374,
		"target":34963
	},
	{
		"buffer":0,
		"byteOffset":4376,
		"byteLength":24992,
		"target":34962,
		"byteStride":32
	},
	{
		"buffer":1,
		"byteOffset":0,
		"byteLength":1458,
		"target":34963
	},
	{
		"buffer":1,
		"byteOffset":1460,
		"byteLength":7776,
		"target":34962,
		"byteStride":32
	},
	{
		"buffer":2,
		"byteOffset":0,
		"byteLength":42240,
		"target":34963
	},
	{
		"buffer":2,
		"byteOffset":42240,
		"byteLength":340800,
		"target":34962,
		"byteStride":32
	},
	{
		"buffer":3,
		"byteOffset":0,
		"byteLength":264,
		"target":34963
	},
	{
		"buffer":3,
		"byteOffset":264,
		"byteLength":2304,
		"target":34962,
		"byteStride":32
	},
	{
		"buffer":4,
		"byteOffset":0,
		"byteLength":264,
		"target":34963
	},
	{
		"buffer":4,
		"byteOffset":264,
		"byteLength":2304,
		"target":34962,
		"byteStride":32
	},
	{
		"buffer":5,
		"byteOffset":0,
		"byteLength":264,
		"target":34963
	},
	{
		"buffer":5,
		"byteOffset":264,
		"byteLength":2304,
		"target":34962,
		"byteStride":32
	},
	{
		"buffer":6,
		"byteOffset":0,
		"byteLength":120,
		"target":34963
	},
	{
		"buffer":6,
		"byteOffset":120,
		"byteLength":1152,
		"target":34962,
		"byteStride":32
	},
	{
		"buffer":7,
		"byteOffset":0,
		"byteLength":120,
		"target":34963
	},
	{
		"buffer":7,
		"byteOffset":120,
		"byteLength":1152,
		"target":34962,
		"byteStride":32
	},
	{
		"buffer":8,
		"byteOffset":0,
		"byteLength":264,
		"target":34963
	},
	{
		"buffer":8,
		"byteOffset":264,
		"byteLength":2304,
		"target":34962,
		"byteStride":32
	},
	{
		"buffer":9,
		"byteOffset":0,
		"byteLength":168,
		"target":34963
	},
	{
		"buffer":9,
		"byteOffset":168,
		"byteLength":1536,
		"target":34962,
		"byteStride":32
	},
	{
		"buffer":10,
		"byteOffset":0,
		"byteLength":7344,
		"target":34963
	},
	{
		"buffer":10,
		"byteOffset":7344,
		"byteLength":39680,
		"target":34962,
		"byteStride":32
	},
	{
		"buffer":11,
		"byteOffset":0,
		"byteLength":18576,
		"target":34963
	},
	{
		"buffer":11,
		"byteOffset":18576,
		"byteLength":100736,
		"target":34962,
		"byteStride":32
	},
	{
		"buffer":12,
		"byteOffset":0,
		"byteLength":2520,
		"target":34963
	},
	{
		"buffer":12,
		"byteOffset":2520,
		"byteLength":13888,
		"target":34962,
		"byteStride":32
	}],
	"buffers":[{
		"uri":"data:application/octet-stream;base64,",
		"byteLength":29368
	},
	{
		"uri":"data:application/octet-stream;base64,",
		"byteLength":9236
	},
	{
		"uri":"data:application/octet-stream;base64,",
		"byteLength":383040
	},
	{
		"uri":"data:application/octet-stream;base64,",
		"byteLength":2568
	},
	{
		"uri":"data:application/octet-stream;base64,",
		"byteLength":2568
	},
	{
		"uri":"data:application/octet-stream;base64,",
		"byteLength":2568
	},
	{
		"uri":"data:application/octet-stream;base64,",
		"byteLength":1272
	},
	{
		"uri":"data:application/octet-stream;base64,",
		"byteLength":1272
	},
	{
		"uri":"data:application/octet-stream;base64,",
		"byteLength":2568
	},
	{
		"uri":"data:application/octet-stream;base64,",
		"byteLength":1704
	},
	{
		"uri":"data:application/octet-stream;base64,",
		"byteLength":47024
	},
	{
		"uri":"data:application/octet-stream;base64,",
		"byteLength":119312
	},
	{
		"uri":"data:application/octet-stream;base64,",
		"byteLength":16408
	}],
	"images":[{
		"uri":"data:image/jpeg;base64,"
	},
	{
		"uri":"data:image/jpeg;base64,"
	},
	{
		"uri":"data:image/jpeg;base64,"
	}],
	"samplers":[{
		"magFilter":9729,
		"minFilter":9729,
		"wrapS":10497,
		"wrapT":10497
	},
	{
		"magFilter":9729,
		"minFilter":9729,
		"wrapS":10497,
		"wrapT":10497
	},
	{
		"magFilter":9729,
		"minFilter":9729,
		"wrapS":10497,
		"wrapT":10497
	}]
}