{
	"asset":{
		"version":"2.0",
		"generator":"Created using the official Cinema 4D glTF Exporter 1.000x284978"
	},
	"scenes":[{
		"nodes":[0]
	}],
	"nodes":[{
		"name":"舞台",
		"children":[1,
		2,
		3,
		4,
		5,
		6,
		7,
		8,
		9,
		10,
		11,
		12,
		13,
		14,
		15]
	},
	{
		"name":"舞台",
		"mesh":0
	},
	{
		"name":"舞台-材质.10",
		"mesh":1
	},
	{
		"name":"舞台-材质.10",
		"mesh":2
	},
	{
		"name":"舞台-材质.1",
		"mesh":3
	},
	{
		"name":"舞台-材质",
		"mesh":4
	},
	{
		"name":"舞台-材质.4",
		"mesh":5
	},
	{
		"name":"舞台-材质.3",
		"mesh":6
	},
	{
		"name":"舞台-材质.7",
		"mesh":7
	},
	{
		"name":"舞台-材质.2",
		"mesh":8
	},
	{
		"name":"舞台-材质.3",
		"mesh":9
	},
	{
		"name":"舞台-材质.3",
		"mesh":10
	},
	{
		"name":"舞台-材质.1",
		"mesh":11
	},
	{
		"name":"舞台-材质.9",
		"mesh":12
	},
	{
		"name":"舞台-材质.12",
		"mesh":13
	},
	{
		"name":"舞台-材质.13",
		"mesh":14
	}],
	"bufferViews":[{
		"buffer":0,
		"byteOffset":0,
		"target":34963,
		"byteLength":64158
	},
	{
		"buffer":0,
		"byteOffset":64160,
		"target":34962,
		"byteLength":349728,
		"byteStride":32
	},
	{
		"buffer":1,
		"byteOffset":0,
		"target":34963,
		"byteLength":432
	},
	{
		"buffer":1,
		"byteOffset":432,
		"target":34962,
		"byteLength":2368,
		"byteStride":32
	},
	{
		"buffer":2,
		"byteOffset":0,
		"target":34963,
		"byteLength":3240
	},
	{
		"buffer":2,
		"byteOffset":3240,
		"target":34962,
		"byteLength":17280,
		"byteStride":32
	},
	{
		"buffer":3,
		"byteOffset":0,
		"target":34963,
		"byteLength":1830
	},
	{
		"buffer":3,
		"byteOffset":1832,
		"target":34962,
		"byteLength":9824,
		"byteStride":32
	},
	{
		"buffer":4,
		"byteOffset":0,
		"target":34963,
		"byteLength":2520
	},
	{
		"buffer":4,
		"byteOffset":2520,
		"target":34962,
		"byteLength":13376,
		"byteStride":32
	},
	{
		"buffer":5,
		"byteOffset":0,
		"target":34963,
		"byteLength":6366
	},
	{
		"buffer":5,
		"byteOffset":6368,
		"target":34962,
		"byteLength":33824,
		"byteStride":32
	},
	{
		"buffer":6,
		"byteOffset":0,
		"target":34963,
		"byteLength":6420
	},
	{
		"buffer":6,
		"byteOffset":6420,
		"target":34962,
		"byteLength":34176,
		"byteStride":32
	},
	{
		"buffer":7,
		"byteOffset":0,
		"target":34963,
		"byteLength":2448
	},
	{
		"buffer":7,
		"byteOffset":2448,
		"target":34962,
		"byteLength":12928,
		"byteStride":32
	},
	{
		"buffer":8,
		"byteOffset":0,
		"target":34963,
		"byteLength":50688
	},
	{
		"buffer":8,
		"byteOffset":50688,
		"target":34962,
		"byteLength":161760,
		"byteStride":32
	},
	{
		"buffer":9,
		"byteOffset":0,
		"target":34963,
		"byteLength":34044
	},
	{
		"buffer":9,
		"byteOffset":34044,
		"target":34962,
		"byteLength":117984,
		"byteStride":32
	},
	{
		"buffer":10,
		"byteOffset":0,
		"target":34963,
		"byteLength":9792
	},
	{
		"buffer":10,
		"byteOffset":9792,
		"target":34962,
		"byteLength":104448,
		"byteStride":32
	},
	{
		"buffer":11,
		"byteOffset":0,
		"target":34963,
		"byteLength":5514
	},
	{
		"buffer":11,
		"byteOffset":5516,
		"target":34962,
		"byteLength":29792,
		"byteStride":32
	},
	{
		"buffer":12,
		"byteOffset":0,
		"target":34963,
		"byteLength":12672
	},
	{
		"buffer":12,
		"byteOffset":12672,
		"target":34962,
		"byteLength":68800,
		"byteStride":32
	},
	{
		"buffer":13,
		"byteOffset":0,
		"target":34963,
		"byteLength":1686
	},
	{
		"buffer":13,
		"byteOffset":1688,
		"target":34962,
		"byteLength":9248,
		"byteStride":32
	},
	{
		"buffer":14,
		"byteOffset":0,
		"target":34963,
		"byteLength":29616
	},
	{
		"buffer":14,
		"byteOffset":29616,
		"target":34962,
		"byteLength":162176,
		"byteStride":32
	}],
	"meshes":[{
		"name":"舞台",
		"primitives":[{
			"attributes":{
				"POSITION":1,
				"NORMAL":2,
				"TEXCOORD_0":3
			},
			"indices":0
		}]
	},
	{
		"name":"舞台-材质.10",
		"primitives":[{
			"attributes":{
				"POSITION":5,
				"NORMAL":6,
				"TEXCOORD_0":7
			},
			"material":0,
			"indices":4
		}]
	},
	{
		"name":"舞台-材质.10",
		"primitives":[{
			"attributes":{
				"POSITION":9,
				"NORMAL":10,
				"TEXCOORD_0":11
			},
			"material":0,
			"indices":8
		}]
	},
	{
		"name":"舞台-材质.1",
		"primitives":[{
			"attributes":{
				"POSITION":13,
				"NORMAL":14,
				"TEXCOORD_0":15
			},
			"material":1,
			"indices":12
		}]
	},
	{
		"name":"舞台-材质",
		"primitives":[{
			"attributes":{
				"POSITION":17,
				"NORMAL":18,
				"TEXCOORD_0":19
			},
			"material":2,
			"indices":16
		}]
	},
	{
		"name":"舞台-材质.4",
		"primitives":[{
			"attributes":{
				"POSITION":21,
				"NORMAL":22,
				"TEXCOORD_0":23
			},
			"material":3,
			"indices":20
		}]
	},
	{
		"name":"舞台-材质.3",
		"primitives":[{
			"attributes":{
				"POSITION":25,
				"NORMAL":26,
				"TEXCOORD_0":27
			},
			"material":4,
			"indices":24
		}]
	},
	{
		"name":"舞台-材质.7",
		"primitives":[{
			"attributes":{
				"POSITION":29,
				"NORMAL":30,
				"TEXCOORD_0":31
			},
			"material":5,
			"indices":28
		}]
	},
	{
		"name":"舞台-材质.2",
		"primitives":[{
			"attributes":{
				"POSITION":33,
				"NORMAL":34,
				"TEXCOORD_0":35
			},
			"material":6,
			"indices":32
		}]
	},
	{
		"name":"舞台-材质.3",
		"primitives":[{
			"attributes":{
				"POSITION":37,
				"NORMAL":38,
				"TEXCOORD_0":39
			},
			"material":7,
			"indices":36
		}]
	},
	{
		"name":"舞台-材质.3",
		"primitives":[{
			"attributes":{
				"POSITION":41,
				"NORMAL":42,
				"TEXCOORD_0":43
			},
			"material":7,
			"indices":40
		}]
	},
	{
		"name":"舞台-材质.1",
		"primitives":[{
			"attributes":{
				"POSITION":45,
				"NORMAL":46,
				"TEXCOORD_0":47
			},
			"material":1,
			"indices":44
		}]
	},
	{
		"name":"舞台-材质.9",
		"primitives":[{
			"attributes":{
				"POSITION":49,
				"NORMAL":50,
				"TEXCOORD_0":51
			},
			"material":8,
			"indices":48
		}]
	},
	{
		"name":"舞台-材质.12",
		"primitives":[{
			"attributes":{
				"POSITION":53,
				"NORMAL":54,
				"TEXCOORD_0":55
			},
			"material":9,
			"indices":52
		}]
	},
	{
		"name":"舞台-材质.13",
		"primitives":[{
			"attributes":{
				"POSITION":57,
				"NORMAL":58,
				"TEXCOORD_0":59
			},
			"material":10,
			"indices":56
		}]
	}],
	"accessors":[{
		"bufferView":0,
		"type":"SCALAR",
		"componentType":5123,
		"count":32079,
		"max":[10928],
		"byteOffset":0,
		"min":[0]
	},
	{
		"bufferView":1,
		"type":"VEC3",
		"componentType":5126,
		"count":10929,
		"max":[10.036421775817871,
		10.233877182006836,
		-4.0761494636535648],
		"byteOffset":0,
		"min":[-14.533881187438965,
		-6.446794509887695,
		-5.164692401885986]
	},
	{
		"bufferView":1,
		"type":"VEC3",
		"componentType":5126,
		"count":10929,
		"max":[0.9999688267707825,
		1.0,
		0.003937500063329935],
		"byteOffset":12,
		"min":[-0.9999688267707825,
		-1.0,
		-0.9999688267707825]
	},
	{
		"bufferView":1,
		"type":"VEC2",
		"componentType":5126,
		"count":10929,
		"max":[1.0,
		1.0],
		"byteOffset":24,
		"min":[0.0,
		0.0]
	},
	{
		"bufferView":2,
		"type":"SCALAR",
		"componentType":5123,
		"count":216,
		"max":[73],
		"byteOffset":0,
		"min":[0]
	},
	{
		"bufferView":3,
		"type":"VEC3",
		"componentType":5126,
		"count":74,
		"max":[9.1265869140625,
		4.745989799499512,
		-4.2727789878845219],
		"byteOffset":0,
		"min":[5.926021099090576,
		3.3378260135650636,
		-4.285459518432617]
	},
	{
		"bufferView":3,
		"type":"VEC3",
		"componentType":5126,
		"count":74,
		"max":[0.00403125025331974,
		0.00003125000148429535,
		0.9999688267707825],
		"byteOffset":12,
		"min":[0.003750000149011612,
		-0.00003125000148429535,
		0.9999688267707825]
	},
	{
		"bufferView":3,
		"type":"VEC2",
		"componentType":5126,
		"count":74,
		"max":[0.8409091234207153,
		0.9075840711593628],
		"byteOffset":24,
		"min":[0.27272728085517886,
		0.7045454382896423]
	},
	{
		"bufferView":4,
		"type":"SCALAR",
		"componentType":5123,
		"count":1620,
		"max":[539],
		"byteOffset":0,
		"min":[0]
	},
	{
		"bufferView":5,
		"type":"VEC3",
		"componentType":5126,
		"count":540,
		"max":[10.036421775817871,
		6.491490840911865,
		-4.108564853668213],
		"byteOffset":0,
		"min":[5.34433650970459,
		3.5954108238220217,
		-4.127154350280762]
	},
	{
		"bufferView":5,
		"type":"VEC3",
		"componentType":5126,
		"count":540,
		"max":[0.004468750208616257,
		0.0010000000474974514,
		0.9999688267707825],
		"byteOffset":12,
		"min":[0.003781250212341547,
		-0.0010625000577419997,
		0.9999688267707825]
	},
	{
		"bufferView":5,
		"type":"VEC2",
		"componentType":5126,
		"count":540,
		"max":[1.0,
		0.8572525382041931],
		"byteOffset":24,
		"min":[0.0,
		0.0]
	},
	{
		"bufferView":6,
		"type":"SCALAR",
		"componentType":5123,
		"count":915,
		"max":[306],
		"byteOffset":0,
		"min":[0]
	},
	{
		"bufferView":7,
		"type":"VEC3",
		"componentType":5126,
		"count":307,
		"max":[13.329887390136719,
		10.019027709960938,
		-5.054309368133545],
		"byteOffset":0,
		"min":[7.4743828773498539,
		6.878684997558594,
		-5.22712516784668]
	},
	{
		"bufferView":7,
		"type":"VEC3",
		"componentType":5126,
		"count":307,
		"max":[0.029187500476837159,
		0.009156250394880772,
		0.9995312690734863],
		"byteOffset":12,
		"min":[0.028875000774860383,
		0.0072187501937150959,
		0.9995312690734863]
	},
	{
		"bufferView":7,
		"type":"VEC2",
		"componentType":5126,
		"count":307,
		"max":[1.0,
		0.8814592361450195],
		"byteOffset":24,
		"min":[0.0,
		0.0]
	},
	{
		"bufferView":8,
		"type":"SCALAR",
		"componentType":5123,
		"count":1260,
		"max":[417],
		"byteOffset":0,
		"min":[0]
	},
	{
		"bufferView":9,
		"type":"VEC3",
		"componentType":5126,
		"count":418,
		"max":[3.4882652759552,
		10.233877182006836,
		-4.508398532867432],
		"byteOffset":0,
		"min":[-2.763671636581421,
		6.301133632659912,
		-4.533168315887451]
	},
	{
		"bufferView":9,
		"type":"VEC3",
		"componentType":5126,
		"count":418,
		"max":[0.00403125025331974,
		0.0001875000016298145,
		0.9999688267707825],
		"byteOffset":12,
		"min":[0.003750000149011612,
		-0.0001250000059371814,
		0.9999688267707825]
	},
	{
		"bufferView":9,
		"type":"VEC2",
		"componentType":5126,
		"count":418,
		"max":[1.0102040767669678,
		1.0145792961120606],
		"byteOffset":24,
		"min":[-0.010204081423580647,
		0.0]
	},
	{
		"bufferView":10,
		"type":"SCALAR",
		"componentType":5123,
		"count":3183,
		"max":[1056],
		"byteOffset":0,
		"min":[0]
	},
	{
		"bufferView":11,
		"type":"VEC3",
		"componentType":5126,
		"count":1057,
		"max":[5.1443586349487309,
		4.951140880584717,
		-4.970191955566406],
		"byteOffset":0,
		"min":[-4.160017013549805,
		-0.41488125920295718,
		-5.007055282592773]
	},
	{
		"bufferView":11,
		"type":"VEC3",
		"componentType":5126,
		"count":1057,
		"max":[0.0044062500819563869,
		0.00021875000675208867,
		0.9999688267707825],
		"byteOffset":12,
		"min":[0.0035312501713633539,
		-0.0005937500391155481,
		0.9999688267707825]
	},
	{
		"bufferView":11,
		"type":"VEC2",
		"componentType":5126,
		"count":1057,
		"max":[1.0,
		0.9943374395370483],
		"byteOffset":24,
		"min":[0.0,
		0.0]
	},
	{
		"bufferView":12,
		"type":"SCALAR",
		"componentType":5123,
		"count":3210,
		"max":[1067],
		"byteOffset":0,
		"min":[0]
	},
	{
		"bufferView":13,
		"type":"VEC3",
		"componentType":5126,
		"count":1068,
		"max":[-4.053308010101318,
		5.729245185852051,
		-4.0761494636535648],
		"byteOffset":0,
		"min":[-14.532885551452637,
		-6.446794509887695,
		-4.117668628692627]
	},
	{
		"bufferView":13,
		"type":"VEC3",
		"componentType":5126,
		"count":1068,
		"max":[0.004187500104308128,
		0.0002500000118743628,
		0.9999688267707825],
		"byteOffset":12,
		"min":[0.0035937500651925804,
		-0.0002500000118743628,
		0.9999688267707825]
	},
	{
		"bufferView":13,
		"type":"VEC2",
		"componentType":5126,
		"count":1068,
		"max":[0.9787678718566895,
		0.9811321496963501],
		"byteOffset":24,
		"min":[0.03296703100204468,
		0.03773584961891174]
	},
	{
		"bufferView":14,
		"type":"SCALAR",
		"componentType":5123,
		"count":1224,
		"max":[403],
		"byteOffset":0,
		"min":[0]
	},
	{
		"bufferView":15,
		"type":"VEC3",
		"componentType":5126,
		"count":404,
		"max":[-8.005928993225098,
		9.82847785949707,
		-4.099438667297363],
		"byteOffset":0,
		"min":[-11.54324722290039,
		6.591589450836182,
		-4.113452911376953]
	},
	{
		"bufferView":15,
		"type":"VEC3",
		"componentType":5126,
		"count":404,
		"max":[0.005625000223517418,
		0.0008750000270083547,
		0.9999688267707825],
		"byteOffset":12,
		"min":[0.003375000087544322,
		-0.001500000013038516,
		0.9999688267707825]
	},
	{
		"bufferView":15,
		"type":"VEC2",
		"componentType":5126,
		"count":404,
		"max":[0.9901961088180542,
		0.9946316480636597],
		"byteOffset":24,
		"min":[0.009803921915590763,
		-3.7711379193251799e-18]
	},
	{
		"bufferView":16,
		"type":"SCALAR",
		"componentType":5123,
		"count":25344,
		"max":[5054],
		"byteOffset":0,
		"min":[0]
	},
	{
		"bufferView":17,
		"type":"VEC3",
		"componentType":5126,
		"count":5055,
		"max":[20.5,
		-6.976981163024902,
		20.5],
		"byteOffset":0,
		"min":[-20.5,
		-10.233877182006836,
		-20.5]
	},
	{
		"bufferView":17,
		"type":"VEC3",
		"componentType":5126,
		"count":5055,
		"max":[1.0,
		1.0,
		1.0],
		"byteOffset":12,
		"min":[-1.0,
		-1.0,
		-1.0]
	},
	{
		"bufferView":17,
		"type":"VEC2",
		"componentType":5126,
		"count":5055,
		"max":[1.0,
		1.0],
		"byteOffset":24,
		"min":[0.0,
		0.0]
	},
	{
		"bufferView":18,
		"type":"SCALAR",
		"componentType":5123,
		"count":17022,
		"max":[3686],
		"byteOffset":0,
		"min":[0]
	},
	{
		"bufferView":19,
		"type":"VEC3",
		"componentType":5126,
		"count":3687,
		"max":[-0.41192126274108889,
		-1.8145766258239747,
		9.445963859558106],
		"byteOffset":0,
		"min":[-1.1933571100234986,
		-6.913020133972168,
		8.690053939819336]
	},
	{
		"bufferView":19,
		"type":"VEC3",
		"componentType":5126,
		"count":3687,
		"max":[0.999625027179718,
		1.0,
		0.9993438124656677],
		"byteOffset":12,
		"min":[-0.999625027179718,
		-1.0,
		-0.9993438124656677]
	},
	{
		"bufferView":19,
		"type":"VEC2",
		"componentType":5126,
		"count":3687,
		"max":[0.5473001003265381,
		0.8176538944244385],
		"byteOffset":24,
		"min":[0.4526998996734619,
		0.1977265477180481]
	},
	{
		"bufferView":20,
		"type":"SCALAR",
		"componentType":5123,
		"count":4896,
		"max":[3263],
		"byteOffset":0,
		"min":[0]
	},
	{
		"bufferView":21,
		"type":"VEC3",
		"componentType":5126,
		"count":3264,
		"max":[11.61972427368164,
		9.181407928466797,
		-5.622101783752441],
		"byteOffset":0,
		"min":[-12.55593490600586,
		-6.978592395782471,
		-9.877155303955079]
	},
	{
		"bufferView":21,
		"type":"VEC3",
		"componentType":5126,
		"count":3264,
		"max":[0.7098437547683716,
		0.7070937752723694,
		0.7098437547683716],
		"byteOffset":12,
		"min":[-0.7098437547683716,
		-0.7070937752723694,
		-0.7098437547683716]
	},
	{
		"bufferView":21,
		"type":"VEC2",
		"componentType":5126,
		"count":3264,
		"max":[0.1666666865348816,
		1.0],
		"byteOffset":24,
		"min":[-1.0,
		0.0]
	},
	{
		"bufferView":22,
		"type":"SCALAR",
		"componentType":5123,
		"count":2757,
		"max":[930],
		"byteOffset":0,
		"min":[0]
	},
	{
		"bufferView":23,
		"type":"VEC3",
		"componentType":5126,
		"count":931,
		"max":[13.329887390136719,
		10.019027709960938,
		-5.054309368133545],
		"byteOffset":0,
		"min":[7.466767311096191,
		6.876575946807861,
		-5.489006042480469]
	},
	{
		"bufferView":23,
		"type":"VEC3",
		"componentType":5126,
		"count":931,
		"max":[0.9995625615119934,
		0.9998750686645508,
		0.030093751847743989],
		"byteOffset":12,
		"min":[-0.9993438124656677,
		-0.9996563196182251,
		-0.9995312690734863]
	},
	{
		"bufferView":23,
		"type":"VEC2",
		"componentType":5126,
		"count":931,
		"max":[3.3333332538604738,
		2.3333332538604738],
		"byteOffset":24,
		"min":[0.0,
		-1.0]
	},
	{
		"bufferView":24,
		"type":"SCALAR",
		"componentType":5123,
		"count":6336,
		"max":[2149],
		"byteOffset":0,
		"min":[0]
	},
	{
		"bufferView":25,
		"type":"VEC3",
		"componentType":5126,
		"count":2150,
		"max":[14.352235794067383,
		0.9510318040847778,
		-4.978199005126953],
		"byteOffset":0,
		"min":[6.224112510681152,
		-7.0980706214904789,
		-5.168036460876465]
	},
	{
		"bufferView":25,
		"type":"VEC3",
		"componentType":5126,
		"count":2150,
		"max":[0.9999688267707825,
		0.9999688267707825,
		0.9999688267707825],
		"byteOffset":12,
		"min":[-0.9999688267707825,
		-1.0,
		-0.9999688267707825]
	},
	{
		"bufferView":25,
		"type":"VEC2",
		"componentType":5126,
		"count":2150,
		"max":[1.0,
		1.0],
		"byteOffset":24,
		"min":[0.0,
		0.0]
	},
	{
		"bufferView":26,
		"type":"SCALAR",
		"componentType":5123,
		"count":843,
		"max":[288],
		"byteOffset":0,
		"min":[0]
	},
	{
		"bufferView":27,
		"type":"VEC3",
		"componentType":5126,
		"count":289,
		"max":[-4.8182549476623539,
		6.629905700683594,
		-4.263124465942383],
		"byteOffset":0,
		"min":[-6.121650218963623,
		4.59413480758667,
		-4.268288612365723]
	},
	{
		"bufferView":27,
		"type":"VEC3",
		"componentType":5126,
		"count":289,
		"max":[0.010843750089406968,
		0.0035000001080334188,
		0.9999688267707825],
		"byteOffset":12,
		"min":[-0.009093750268220902,
		-0.0005937500391155481,
		-0.9999688267707825]
	},
	{
		"bufferView":27,
		"type":"VEC2",
		"componentType":5126,
		"count":289,
		"max":[1.0003927946090699,
		1.0],
		"byteOffset":24,
		"min":[0.0,
		0.0]
	},
	{
		"bufferView":28,
		"type":"SCALAR",
		"componentType":5123,
		"count":14808,
		"max":[5067],
		"byteOffset":0,
		"min":[0]
	},
	{
		"bufferView":29,
		"type":"VEC3",
		"componentType":5126,
		"count":5068,
		"max":[4.649020195007324,
		-2.823962926864624,
		-4.227103233337402],
		"byteOffset":0,
		"min":[-0.07111012190580368,
		-6.765933036804199,
		-4.403438568115234]
	},
	{
		"bufferView":29,
		"type":"VEC3",
		"componentType":5126,
		"count":5068,
		"max":[0.9999688267707825,
		1.0,
		0.9999688267707825],
		"byteOffset":12,
		"min":[-0.9999688267707825,
		-0.9999688267707825,
		-0.9999688267707825]
	},
	{
		"bufferView":29,
		"type":"VEC2",
		"componentType":5126,
		"count":5068,
		"max":[0.9900000095367432,
		1.0],
		"byteOffset":24,
		"min":[-0.009999999776482582,
		0.0]
	}],
	"buffers":[{
		"uri":"data:application/octet-stream;base64,",
		"byteLength":413888
	},
	{
		"uri":"data:application/octet-stream;base64,",
		"byteLength":2800
	},
	{
		"uri":"data:application/octet-stream;base64,",
		"byteLength":20520
	},
	{
		"uri":"data:application/octet-stream;base64,",
		"byteLength":11656
	},
	{
		"uri":"data:application/octet-stream;base64,",
		"byteLength":15896
	},
	{
		"uri":"data:application/octet-stream;base64,",
		"byteLength":40192
	},
	{
		"uri":"data:application/octet-stream;base64,",
		"byteLength":40596
	},
	{
		"uri":"data:application/octet-stream;base64,",
		"byteLength":15376
	},
	{
		"uri":"data:application/octet-stream;base64,",
		"byteLength":212448
	},
	{
		"uri":"data:application/octet-stream;base64,",
		"byteLength":152028
	},
	{
		"uri":"data:application/octet-stream;base64,",
		"byteLength":114240
	},
	{
		"uri":"data:application/octet-stream;base64,",
		"byteLength":35308
	},
	{
		"uri":"data:application/octet-stream;base64,",
		"byteLength":81472
	},
	{
		"uri":"data:application/octet-stream;base64,",
		"byteLength":10936
	},
	{
		"uri":"data:application/octet-stream;base64,",
		"byteLength":191792
	}],
	"images":[{
		"uri":"data:image/jpeg;base64,"
	},
	{
		"uri":"data:image/jpeg;base64,"
	},
	{
		"uri":"data:image/jpeg;base64,"
	},
	{
		"uri":"data:image/jpeg;base64,"
	},
	{
		"uri":"data:image/jpeg;base64,"
	},
	{
		"uri":"data:image/jpeg;base64,"
	},
	{
		"uri":"data:image/jpeg;base64,"
	},
	{
		"uri":"data:image/jpeg;base64,"
	},
	{
		"uri":"data:image/jpeg;base64,"
	}],
	"samplers":[{
		"magFilter":9729,
		"minFilter":9987,
		"wrapS":10497,
		"wrapT":10497
	},
	{
		"magFilter":9729,
		"minFilter":9987,
		"wrapS":10497,
		"wrapT":10497
	},
	{
		"magFilter":9729,
		"minFilter":9987,
		"wrapS":10497,
		"wrapT":10497
	},
	{
		"magFilter":9729,
		"minFilter":9987,
		"wrapS":10497,
		"wrapT":10497
	},
	{
		"magFilter":9729,
		"minFilter":9987,
		"wrapS":10497,
		"wrapT":10497
	},
	{
		"magFilter":9729,
		"minFilter":9987,
		"wrapS":10497,
		"wrapT":10497
	},
	{
		"magFilter":9729,
		"minFilter":9987,
		"wrapS":10497,
		"wrapT":10497
	},
	{
		"magFilter":9729,
		"minFilter":9987,
		"wrapS":10497,
		"wrapT":10497
	},
	{
		"magFilter":9729,
		"minFilter":9987,
		"wrapS":10497,
		"wrapT":10497
	}],
	"textures":[{
		"sampler":0,
		"source":0
	},
	{
		"sampler":1,
		"source":1
	},
	{
		"sampler":2,
		"source":2
	},
	{
		"sampler":3,
		"source":3
	},
	{
		"sampler":4,
		"source":4
	},
	{
		"sampler":5,
		"source":5
	},
	{
		"sampler":6,
		"source":6
	},
	{
		"sampler":7,
		"source":7
	},
	{
		"sampler":8,
		"source":8
	}],
	"materials":[{
		"pbrMetallicRoughness":{
			"baseColorTexture":{
				"index":0
			},
			"baseColorFactor":[0.8,
			0.8,
			0.8,
			1.0],
			"metallicFactor":0.02,
			"roughnessFactor":0.0
		},
		"emissiveFactor":[0.0,
		0.0,
		0.0],
		"alphaMode":"OPAQUE",
		"doubleSided":true,
		"name":"材质.10"
	},
	{
		"pbrMetallicRoughness":{
			"baseColorTexture":{
				"index":1
			},
			"baseColorFactor":[0.8,
			0.8,
			0.8,
			1.0],
			"metallicFactor":0.0,
			"roughnessFactor":0.0
		},
		"emissiveFactor":[0.0,
		0.0,
		0.0],
		"alphaMode":"OPAQUE",
		"doubleSided":true,
		"name":"材质.1"
	},
	{
		"pbrMetallicRoughness":{
			"baseColorTexture":{
				"index":2
			},
			"baseColorFactor":[0.8,
			0.8,
			0.8,
			1.0],
			"metallicFactor":0.02,
			"roughnessFactor":0.0
		},
		"emissiveFactor":[0.0,
		0.0,
		0.0],
		"alphaMode":"OPAQUE",
		"doubleSided":true,
		"name":"材质"
	},
	{
		"pbrMetallicRoughness":{
			"baseColorTexture":{
				"index":3
			},
			"baseColorFactor":[0.8,
			0.8,
			0.8,
			1.0],
			"metallicFactor":0.02,
			"roughnessFactor":0.0
		},
		"emissiveFactor":[0.0,
		0.0,
		0.0],
		"alphaMode":"OPAQUE",
		"doubleSided":true,
		"name":"材质.4"
	},
	{
		"pbrMetallicRoughness":{
			"baseColorTexture":{
				"index":4
			},
			"baseColorFactor":[0.8,
			0.8,
			0.8,
			1.0],
			"metallicFactor":0.02,
			"roughnessFactor":0.0
		},
		"emissiveFactor":[0.0,
		0.0,
		0.0],
		"alphaMode":"OPAQUE",
		"doubleSided":true,
		"name":"材质.3"
	},
	{
		"pbrMetallicRoughness":{
			"baseColorTexture":{
				"index":5
			},
			"baseColorFactor":[0.8,
			0.8,
			0.8,
			1.0],
			"metallicFactor":0.02,
			"roughnessFactor":0.0
		},
		"emissiveFactor":[0.0,
		0.0,
		0.0],
		"alphaMode":"OPAQUE",
		"doubleSided":true,
		"name":"材质.7"
	},
	{
		"pbrMetallicRoughness":{
			"baseColorFactor":[0.6000000000000001,
			0.6780487804878048,
			0.8,
			1.0],
			"metallicFactor":0.0,
			"roughnessFactor":0.5
		},
		"emissiveFactor":[0.0,
		0.0,
		0.0],
		"alphaMode":"OPAQUE",
		"doubleSided":true,
		"name":"材质.2"
	},
	{
		"pbrMetallicRoughness":{
			"baseColorFactor":[0.02,
			0.02,
			0.02,
			1.0],
			"metallicFactor":0.0,
			"roughnessFactor":0.3
		},
		"emissiveFactor":[0.0,
		0.0,
		0.0],
		"alphaMode":"OPAQUE",
		"doubleSided":true,
		"name":"材质.3"
	},
	{
		"pbrMetallicRoughness":{
			"baseColorTexture":{
				"index":6
			},
			"baseColorFactor":[0.8,
			0.8,
			0.8,
			1.0],
			"metallicFactor":0.02,
			"roughnessFactor":0.0
		},
		"emissiveFactor":[0.0,
		0.0,
		0.0],
		"alphaMode":"OPAQUE",
		"doubleSided":true,
		"name":"材质.9"
	},
	{
		"pbrMetallicRoughness":{
			"baseColorTexture":{
				"index":7
			},
			"baseColorFactor":[0.8,
			0.8,
			0.8,
			1.0],
			"metallicFactor":0.02,
			"roughnessFactor":0.0
		},
		"emissiveFactor":[0.0,
		0.0,
		0.0],
		"alphaMode":"OPAQUE",
		"doubleSided":true,
		"name":"材质.12"
	},
	{
		"pbrMetallicRoughness":{
			"baseColorTexture":{
				"index":8
			},
			"baseColorFactor":[0.8,
			0.8,
			0.8,
			1.0],
			"metallicFactor":0.02,
			"roughnessFactor":0.0
		},
		"emissiveFactor":[0.0,
		0.0,
		0.0],
		"alphaMode":"OPAQUE",
		"doubleSided":true,
		"name":"材质.13"
	}]
}