{
	"asset":{
		"version":"2.0",
		"generator":"Created using the official Cinema 4D glTF Exporter 1.000x284978"
	},
	"meshes":[{
		"name":"扫描-材质4",
		"primitives":[{
			"attributes":{
				"TEXCOORD_0":3,
				"POSITION":1,
				"NORMAL":2
			},
			"indices":0,
			"material":0
		}]
	},
	{
		"name":"扫描-材质5",
		"primitives":[{
			"attributes":{
				"TEXCOORD_0":7,
				"POSITION":5,
				"NORMAL":6
			},
			"indices":4,
			"material":1
		}]
	},
	{
		"name":"扫描-材质1",
		"primitives":[{
			"attributes":{
				"TEXCOORD_0":11,
				"POSITION":9,
				"NORMAL":10
			},
			"indices":8,
			"material":2
		}]
	},
	{
		"name":"扫描-材质",
		"primitives":[{
			"attributes":{
				"TEXCOORD_0":15,
				"POSITION":13,
				"NORMAL":14
			},
			"indices":12,
			"material":3
		}]
	},
	{
		"name":"扫描-材质2",
		"primitives":[{
			"attributes":{
				"TEXCOORD_0":19,
				"POSITION":17,
				"NORMAL":18
			},
			"indices":16,
			"material":4
		}]
	},
	{
		"name":"扫描-材质.1",
		"primitives":[{
			"attributes":{
				"TEXCOORD_0":23,
				"POSITION":21,
				"NORMAL":22
			},
			"indices":20,
			"material":5
		}]
	},
	{
		"name":"扫描-材质.2",
		"primitives":[{
			"attributes":{
				"TEXCOORD_0":27,
				"POSITION":25,
				"NORMAL":26
			},
			"indices":24,
			"material":6
		}]
	},
	{
		"name":"扫描-材质.3",
		"primitives":[{
			"attributes":{
				"TEXCOORD_0":31,
				"POSITION":29,
				"NORMAL":30
			},
			"indices":28,
			"material":7
		}]
	},
	{
		"name":"扫描-材质.5",
		"primitives":[{
			"attributes":{
				"TEXCOORD_0":35,
				"POSITION":33,
				"NORMAL":34
			},
			"indices":32,
			"material":8
		}]
	},
	{
		"name":"扫描-材质.4",
		"primitives":[{
			"attributes":{
				"TEXCOORD_0":39,
				"POSITION":37,
				"NORMAL":38
			},
			"indices":36,
			"material":9
		}]
	},
	{
		"name":"扫描-材质.5",
		"primitives":[{
			"attributes":{
				"TEXCOORD_0":43,
				"POSITION":41,
				"NORMAL":42
			},
			"indices":40,
			"material":8
		}]
	},
	{
		"name":"扫描-材质.5",
		"primitives":[{
			"attributes":{
				"TEXCOORD_0":47,
				"POSITION":45,
				"NORMAL":46
			},
			"indices":44,
			"material":8
		}]
	},
	{
		"name":"扫描-材质.4",
		"primitives":[{
			"attributes":{
				"TEXCOORD_0":51,
				"POSITION":49,
				"NORMAL":50
			},
			"indices":48,
			"material":9
		}]
	}],
	"scenes":[{
		"nodes":[0]
	}],
	"materials":[{
		"pbrMetallicRoughness":{
			"baseColorTexture":{
				"index":0
			},
			"baseColorFactor":[0.8,
			0.8,
			0.8,
			1.0],
			"metallicFactor":0.08,
			"roughnessFactor":0.0
		},
		"emissiveFactor":[0.0,
		0.0,
		0.0],
		"alphaMode":"OPAQUE",
		"doubleSided":false,
		"name":"材质4"
	},
	{
		"pbrMetallicRoughness":{
			"baseColorTexture":{
				"index":1
			},
			"baseColorFactor":[0.8,
			0.8,
			0.8,
			1.0],
			"metallicFactor":0.08,
			"roughnessFactor":0.0
		},
		"emissiveFactor":[0.0,
		0.0,
		0.0],
		"alphaMode":"OPAQUE",
		"doubleSided":false,
		"name":"材质5"
	},
	{
		"pbrMetallicRoughness":{
			"baseColorTexture":{
				"index":2
			},
			"baseColorFactor":[0.8,
			0.8,
			0.8,
			1.0],
			"metallicFactor":0.08,
			"roughnessFactor":0.0
		},
		"emissiveFactor":[0.0,
		0.0,
		0.0],
		"alphaMode":"OPAQUE",
		"doubleSided":false,
		"name":"材质1"
	},
	{
		"pbrMetallicRoughness":{
			"baseColorTexture":{
				"index":3
			},
			"baseColorFactor":[0.8,
			0.8,
			0.8,
			1.0],
			"metallicFactor":0.08,
			"roughnessFactor":0.0
		},
		"emissiveFactor":[0.0,
		0.0,
		0.0],
		"alphaMode":"OPAQUE",
		"doubleSided":false,
		"name":"材质"
	},
	{
		"pbrMetallicRoughness":{
			"baseColorTexture":{
				"index":4
			},
			"baseColorFactor":[0.8,
			0.8,
			0.8,
			1.0],
			"metallicFactor":0.08,
			"roughnessFactor":0.0
		},
		"emissiveFactor":[0.0,
		0.0,
		0.0],
		"alphaMode":"OPAQUE",
		"doubleSided":false,
		"name":"材质2"
	},
	{
		"pbrMetallicRoughness":{
			"baseColorFactor":[0.7294117647058823,
			0.5686274509803921,
			0.15686274509803925,
			1.0],
			"metallicFactor":0.7000000000000001,
			"roughnessFactor":0.0
		},
		"emissiveFactor":[0.0,
		0.0,
		0.0],
		"alphaMode":"OPAQUE",
		"doubleSided":false,
		"name":"材质.1"
	},
	{
		"pbrMetallicRoughness":{
			"baseColorFactor":[0.2235294117647059,
			0.3137254901960784,
			0.5254901960784314,
			1.0],
			"metallicFactor":0.7000000000000001,
			"roughnessFactor":0.0
		},
		"emissiveFactor":[0.0,
		0.0,
		0.0],
		"alphaMode":"OPAQUE",
		"doubleSided":false,
		"name":"材质.2"
	},
	{
		"pbrMetallicRoughness":{
			"baseColorFactor":[0.27058823529411765,
			0.39607843137254897,
			0.6862745098039216,
			1.0],
			"metallicFactor":0.7000000000000001,
			"roughnessFactor":0.0
		},
		"emissiveFactor":[0.0,
		0.0,
		0.0],
		"alphaMode":"OPAQUE",
		"doubleSided":false,
		"name":"材质.3"
	},
	{
		"pbrMetallicRoughness":{
			"baseColorFactor":[0.8235294117647058,
			0.8313725490196078,
			0.8274509803921567,
			1.0],
			"metallicFactor":0.7000000000000001,
			"roughnessFactor":0.0
		},
		"emissiveFactor":[0.0,
		0.0,
		0.0],
		"alphaMode":"OPAQUE",
		"doubleSided":false,
		"name":"材质.5"
	},
	{
		"pbrMetallicRoughness":{
			"baseColorFactor":[0.3607843137254902,
			0.4862745098039214,
			0.6862745098039216,
			1.0],
			"metallicFactor":0.7000000000000001,
			"roughnessFactor":0.0
		},
		"emissiveFactor":[0.0,
		0.0,
		0.0],
		"alphaMode":"OPAQUE",
		"doubleSided":false,
		"name":"材质.4"
	}],
	"nodes":[{
		"name":"扫描",
		"children":[1,
		2,
		3,
		4,
		5,
		6,
		7,
		8,
		9,
		10,
		11,
		12,
		13]
	},
	{
		"name":"扫描-材质4",
		"mesh":0
	},
	{
		"name":"扫描-材质5",
		"mesh":1
	},
	{
		"name":"扫描-材质1",
		"mesh":2
	},
	{
		"name":"扫描-材质",
		"mesh":3
	},
	{
		"name":"扫描-材质2",
		"mesh":4
	},
	{
		"name":"扫描-材质.1",
		"mesh":5
	},
	{
		"name":"扫描-材质.2",
		"mesh":6
	},
	{
		"name":"扫描-材质.3",
		"mesh":7
	},
	{
		"name":"扫描-材质.5",
		"mesh":8
	},
	{
		"name":"扫描-材质.4",
		"mesh":9
	},
	{
		"name":"扫描-材质.5",
		"mesh":10
	},
	{
		"name":"扫描-材质.5",
		"mesh":11
	},
	{
		"name":"扫描-材质.4",
		"mesh":12
	}],
	"accessors":[{
		"bufferView":0,
		"type":"SCALAR",
		"componentType":5123,
		"count":6708,
		"byteOffset":0,
		"min":[0],
		"max":[2275]
	},
	{
		"bufferView":1,
		"type":"VEC3",
		"componentType":5126,
		"count":2276,
		"byteOffset":0,
		"min":[0.5647410750389099,
		-7.817128658294678,
		3.9991207122802736],
		"max":[0.9640166759490967,
		-0.03234662488102913,
		10.389639854431153]
	},
	{
		"bufferView":1,
		"type":"VEC3",
		"componentType":5126,
		"count":2276,
		"byteOffset":12,
		"min":[-0.999750018119812,
		-1.0,
		-0.9996563196182251],
		"max":[0.999750018119812,
		0.9999688267707825,
		0.999750018119812]
	},
	{
		"bufferView":1,
		"type":"VEC2",
		"componentType":5126,
		"count":2276,
		"byteOffset":24,
		"min":[0.0,
		0.0],
		"max":[1.0,
		1.0]
	},
	{
		"bufferView":2,
		"type":"SCALAR",
		"componentType":5123,
		"count":432,
		"byteOffset":0,
		"min":[0],
		"max":[151]
	},
	{
		"bufferView":3,
		"type":"VEC3",
		"componentType":5126,
		"count":152,
		"byteOffset":0,
		"min":[0.9396176338195801,
		-7.6817216873168949,
		9.902848243713379],
		"max":[1.3517800569534302,
		4.585352897644043,
		16.8929443359375]
	},
	{
		"bufferView":3,
		"type":"VEC3",
		"componentType":5126,
		"count":152,
		"byteOffset":12,
		"min":[-0.999750018119812,
		-1.0,
		-0.999750018119812],
		"max":[0.999750018119812,
		0.9999688267707825,
		0.999750018119812]
	},
	{
		"bufferView":3,
		"type":"VEC2",
		"componentType":5126,
		"count":152,
		"byteOffset":24,
		"min":[0.0,
		0.0],
		"max":[1.0,
		1.0]
	},
	{
		"bufferView":4,
		"type":"SCALAR",
		"componentType":5123,
		"count":1344,
		"byteOffset":0,
		"min":[0],
		"max":[453]
	},
	{
		"bufferView":5,
		"type":"VEC3",
		"componentType":5126,
		"count":454,
		"byteOffset":0,
		"min":[0.5815165042877197,
		3.1861205101013185,
		5.212898254394531],
		"max":[0.9132692217826843,
		5.832797527313232,
		8.461833953857422]
	},
	{
		"bufferView":5,
		"type":"VEC3",
		"componentType":5126,
		"count":454,
		"byteOffset":12,
		"min":[-0.999750018119812,
		-1.0,
		-0.9988750219345093],
		"max":[0.999750018119812,
		0.9998750686645508,
		0.9987813234329224]
	},
	{
		"bufferView":5,
		"type":"VEC2",
		"componentType":5126,
		"count":454,
		"byteOffset":24,
		"min":[0.0,
		0.0],
		"max":[1.0,
		1.0]
	},
	{
		"bufferView":6,
		"type":"SCALAR",
		"componentType":5123,
		"count":3036,
		"byteOffset":0,
		"min":[0],
		"max":[1019]
	},
	{
		"bufferView":7,
		"type":"VEC3",
		"componentType":5126,
		"count":1020,
		"byteOffset":0,
		"min":[0.5800635814666748,
		-0.2760348320007324,
		5.101250648498535],
		"max":[0.9156688451766968,
		3.177093267440796,
		8.529433250427246]
	},
	{
		"bufferView":7,
		"type":"VEC3",
		"componentType":5126,
		"count":1020,
		"byteOffset":12,
		"min":[-0.999750018119812,
		-1.0,
		-0.9996563196182251],
		"max":[0.999750018119812,
		0.9999688267707825,
		0.999750018119812]
	},
	{
		"bufferView":7,
		"type":"VEC2",
		"componentType":5126,
		"count":1020,
		"byteOffset":24,
		"min":[0.0,
		0.0],
		"max":[1.0,
		1.0]
	},
	{
		"bufferView":8,
		"type":"SCALAR",
		"componentType":5123,
		"count":13872,
		"byteOffset":0,
		"min":[0],
		"max":[2721]
	},
	{
		"bufferView":9,
		"type":"VEC3",
		"componentType":5126,
		"count":2722,
		"byteOffset":0,
		"min":[-8.460952758789063,
		-7.781026363372803,
		-15.179389953613282],
		"max":[1.8394677639007569,
		5.111729145050049,
		-7.100326061248779]
	},
	{
		"bufferView":9,
		"type":"VEC3",
		"componentType":5126,
		"count":2722,
		"byteOffset":12,
		"min":[-0.999750018119812,
		-0.9993438124656677,
		-0.999750018119812],
		"max":[0.999750018119812,
		1.0,
		0.999750018119812]
	},
	{
		"bufferView":9,
		"type":"VEC2",
		"componentType":5126,
		"count":2722,
		"byteOffset":24,
		"min":[0.0,
		0.0],
		"max":[1.0,
		1.0]
	},
	{
		"bufferView":10,
		"type":"SCALAR",
		"componentType":5123,
		"count":228,
		"byteOffset":0,
		"min":[0],
		"max":[87]
	},
	{
		"bufferView":11,
		"type":"VEC3",
		"componentType":5126,
		"count":88,
		"byteOffset":0,
		"min":[0.9077482223510742,
		-7.690055847167969,
		5.048384189605713],
		"max":[1.3454030752182007,
		-4.835054397583008,
		14.567869186401368]
	},
	{
		"bufferView":11,
		"type":"VEC3",
		"componentType":5126,
		"count":88,
		"byteOffset":12,
		"min":[-0.999750018119812,
		-1.0,
		-0.999750018119812],
		"max":[0.999750018119812,
		1.0,
		0.9985625743865967]
	},
	{
		"bufferView":11,
		"type":"VEC2",
		"componentType":5126,
		"count":88,
		"byteOffset":24,
		"min":[0.0,
		0.0],
		"max":[1.0,
		1.0]
	},
	{
		"bufferView":12,
		"type":"SCALAR",
		"componentType":5123,
		"count":2112,
		"byteOffset":0,
		"min":[0],
		"max":[492]
	},
	{
		"bufferView":13,
		"type":"VEC3",
		"componentType":5126,
		"count":493,
		"byteOffset":0,
		"min":[-2.1287670135498049,
		-7.844372272491455,
		-22.191543579101564],
		"max":[5.982753276824951,
		-7.669636249542236,
		-14.080022811889649]
	},
	{
		"bufferView":13,
		"type":"VEC3",
		"componentType":5126,
		"count":493,
		"byteOffset":12,
		"min":[-0.999750018119812,
		-1.0,
		-0.999750018119812],
		"max":[0.999750018119812,
		1.0,
		0.999750018119812]
	},
	{
		"bufferView":13,
		"type":"VEC2",
		"componentType":5126,
		"count":493,
		"byteOffset":24,
		"min":[0.0,
		0.0],
		"max":[1.0,
		1.0]
	},
	{
		"bufferView":14,
		"type":"SCALAR",
		"componentType":5123,
		"count":6336,
		"byteOffset":0,
		"min":[0],
		"max":[1478]
	},
	{
		"bufferView":15,
		"type":"VEC3",
		"componentType":5126,
		"count":1479,
		"byteOffset":0,
		"min":[-5.947917938232422,
		-7.857424736022949,
		-17.075963973999025],
		"max":[7.873298168182373,
		-7.666414737701416,
		22.191543579101564]
	},
	{
		"bufferView":15,
		"type":"VEC3",
		"componentType":5126,
		"count":1479,
		"byteOffset":12,
		"min":[-0.999750018119812,
		-1.0,
		-0.999750018119812],
		"max":[0.999750018119812,
		1.0,
		0.999750018119812]
	},
	{
		"bufferView":15,
		"type":"VEC2",
		"componentType":5126,
		"count":1479,
		"byteOffset":24,
		"min":[0.0,
		0.0],
		"max":[1.0,
		1.0]
	},
	{
		"bufferView":16,
		"type":"SCALAR",
		"componentType":5123,
		"count":270,
		"byteOffset":0,
		"min":[0],
		"max":[95]
	},
	{
		"bufferView":17,
		"type":"VEC3",
		"componentType":5126,
		"count":96,
		"byteOffset":0,
		"min":[1.659961223602295,
		-7.849632263183594,
		-17.456174850463868],
		"max":[2.78586483001709,
		4.3123040199279789,
		-5.693021774291992]
	},
	{
		"bufferView":17,
		"type":"VEC3",
		"componentType":5126,
		"count":96,
		"byteOffset":12,
		"min":[-0.021406251937150956,
		-1.0,
		-0.999750018119812],
		"max":[0.021406251937150956,
		1.0,
		0.999750018119812]
	},
	{
		"bufferView":17,
		"type":"VEC2",
		"componentType":5126,
		"count":96,
		"byteOffset":24,
		"min":[0.0,
		0.0],
		"max":[1.0,
		1.0]
	},
	{
		"bufferView":18,
		"type":"SCALAR",
		"componentType":5123,
		"count":582,
		"byteOffset":0,
		"min":[0],
		"max":[212]
	},
	{
		"bufferView":19,
		"type":"VEC3",
		"componentType":5126,
		"count":213,
		"byteOffset":0,
		"min":[1.1362544298171998,
		-7.7476301193237309,
		5.8513503074646],
		"max":[2.284909963607788,
		6.792264938354492,
		18.673072814941408]
	},
	{
		"bufferView":19,
		"type":"VEC3",
		"componentType":5126,
		"count":213,
		"byteOffset":12,
		"min":[-0.999750018119812,
		-1.0,
		-0.999750018119812],
		"max":[0.999750018119812,
		0.9996563196182251,
		0.999750018119812]
	},
	{
		"bufferView":19,
		"type":"VEC2",
		"componentType":5126,
		"count":213,
		"byteOffset":24,
		"min":[0.43270307779312136,
		0.0],
		"max":[0.9999833106994629,
		1.0]
	},
	{
		"bufferView":20,
		"type":"SCALAR",
		"componentType":5123,
		"count":906,
		"byteOffset":0,
		"min":[0],
		"max":[318]
	},
	{
		"bufferView":21,
		"type":"VEC3",
		"componentType":5126,
		"count":319,
		"byteOffset":0,
		"min":[1.428102970123291,
		-7.849632263183594,
		-5.611368179321289],
		"max":[2.5312812328338625,
		7.857424736022949,
		5.094467639923096]
	},
	{
		"bufferView":21,
		"type":"VEC3",
		"componentType":5126,
		"count":319,
		"byteOffset":12,
		"min":[-0.999750018119812,
		-0.9992188215255737,
		-0.999750018119812],
		"max":[0.999750018119812,
		0.9995312690734863,
		0.999750018119812]
	},
	{
		"bufferView":21,
		"type":"VEC2",
		"componentType":5126,
		"count":319,
		"byteOffset":24,
		"min":[0.054872408509254459,
		0.0],
		"max":[0.7765547037124634,
		1.0]
	},
	{
		"bufferView":22,
		"type":"SCALAR",
		"componentType":5123,
		"count":282,
		"byteOffset":0,
		"min":[0],
		"max":[99]
	},
	{
		"bufferView":23,
		"type":"VEC3",
		"componentType":5126,
		"count":100,
		"byteOffset":0,
		"min":[1.653510570526123,
		-7.849632263183594,
		-17.456174850463868],
		"max":[2.78586483001709,
		4.374285697937012,
		-5.392894744873047]
	},
	{
		"bufferView":23,
		"type":"VEC3",
		"componentType":5126,
		"count":100,
		"byteOffset":12,
		"min":[-0.999750018119812,
		0.0,
		-0.9955313205718994],
		"max":[0.999750018119812,
		0.28981250524520876,
		0.021406251937150956]
	},
	{
		"bufferView":23,
		"type":"VEC2",
		"componentType":5126,
		"count":100,
		"byteOffset":24,
		"min":[0.00012565799988806248,
		0.0],
		"max":[0.3253140449523926,
		1.0]
	},
	{
		"bufferView":24,
		"type":"SCALAR",
		"componentType":5123,
		"count":5112,
		"byteOffset":0,
		"min":[0],
		"max":[1289]
	},
	{
		"bufferView":25,
		"type":"VEC3",
		"componentType":5126,
		"count":1290,
		"byteOffset":0,
		"min":[-5.045069217681885,
		-7.852346420288086,
		-14.697142601013184],
		"max":[8.460952758789063,
		7.39022970199585,
		10.322278022766114]
	},
	{
		"bufferView":25,
		"type":"VEC3",
		"componentType":5126,
		"count":1290,
		"byteOffset":12,
		"min":[-0.999750018119812,
		-1.0,
		-0.999750018119812],
		"max":[0.999750018119812,
		1.0,
		0.999750018119812]
	},
	{
		"bufferView":25,
		"type":"VEC2",
		"componentType":5126,
		"count":1290,
		"byteOffset":24,
		"min":[0.0,
		0.0],
		"max":[1.0,
		1.0]
	}],
	"bufferViews":[{
		"buffer":0,
		"byteOffset":0,
		"byteLength":13416,
		"target":34963
	},
	{
		"buffer":0,
		"byteOffset":13416,
		"byteLength":72832,
		"target":34962,
		"byteStride":32
	},
	{
		"buffer":1,
		"byteOffset":0,
		"byteLength":864,
		"target":34963
	},
	{
		"buffer":1,
		"byteOffset":864,
		"byteLength":4864,
		"target":34962,
		"byteStride":32
	},
	{
		"buffer":2,
		"byteOffset":0,
		"byteLength":2688,
		"target":34963
	},
	{
		"buffer":2,
		"byteOffset":2688,
		"byteLength":14528,
		"target":34962,
		"byteStride":32
	},
	{
		"buffer":3,
		"byteOffset":0,
		"byteLength":6072,
		"target":34963
	},
	{
		"buffer":3,
		"byteOffset":6072,
		"byteLength":32640,
		"target":34962,
		"byteStride":32
	},
	{
		"buffer":4,
		"byteOffset":0,
		"byteLength":27744,
		"target":34963
	},
	{
		"buffer":4,
		"byteOffset":27744,
		"byteLength":87104,
		"target":34962,
		"byteStride":32
	},
	{
		"buffer":5,
		"byteOffset":0,
		"byteLength":456,
		"target":34963
	},
	{
		"buffer":5,
		"byteOffset":456,
		"byteLength":2816,
		"target":34962,
		"byteStride":32
	},
	{
		"buffer":6,
		"byteOffset":0,
		"byteLength":4224,
		"target":34963
	},
	{
		"buffer":6,
		"byteOffset":4224,
		"byteLength":15776,
		"target":34962,
		"byteStride":32
	},
	{
		"buffer":7,
		"byteOffset":0,
		"byteLength":12672,
		"target":34963
	},
	{
		"buffer":7,
		"byteOffset":12672,
		"byteLength":47328,
		"target":34962,
		"byteStride":32
	},
	{
		"buffer":8,
		"byteOffset":0,
		"byteLength":540,
		"target":34963
	},
	{
		"buffer":8,
		"byteOffset":540,
		"byteLength":3072,
		"target":34962,
		"byteStride":32
	},
	{
		"buffer":9,
		"byteOffset":0,
		"byteLength":1164,
		"target":34963
	},
	{
		"buffer":9,
		"byteOffset":1164,
		"byteLength":6816,
		"target":34962,
		"byteStride":32
	},
	{
		"buffer":10,
		"byteOffset":0,
		"byteLength":1812,
		"target":34963
	},
	{
		"buffer":10,
		"byteOffset":1812,
		"byteLength":10208,
		"target":34962,
		"byteStride":32
	},
	{
		"buffer":11,
		"byteOffset":0,
		"byteLength":564,
		"target":34963
	},
	{
		"buffer":11,
		"byteOffset":564,
		"byteLength":3200,
		"target":34962,
		"byteStride":32
	},
	{
		"buffer":12,
		"byteOffset":0,
		"byteLength":10224,
		"target":34963
	},
	{
		"buffer":12,
		"byteOffset":10224,
		"byteLength":41280,
		"target":34962,
		"byteStride":32
	}],
	"buffers":[{
		"uri":"data:application/octet-stream;base64,",
		"byteLength":86248
	},
	{
		"uri":"data:application/octet-stream;base64,",
		"byteLength":5728
	},
	{
		"uri":"data:application/octet-stream;base64,",
		"byteLength":17216
	},
	{
		"uri":"data:application/octet-stream;base64,",
		"byteLength":38712
	},
	{
		"uri":"data:application/octet-stream;base64,",
		"byteLength":114848
	},
	{
		"uri":"data:application/octet-stream;base64,",
		"byteLength":3272
	},
	{
		"uri":"data:application/octet-stream;base64,",
		"byteLength":20000
	},
	{
		"uri":"data:application/octet-stream;base64,",
		"byteLength":60000
	},
	{
		"uri":"data:application/octet-stream;base64,",
		"byteLength":3612
	},
	{
		"uri":"data:application/octet-stream;base64,",
		"byteLength":7980
	},
	{
		"uri":"data:application/octet-stream;base64,",
		"byteLength":12020
	},
	{
		"uri":"data:application/octet-stream;base64,",
		"byteLength":3764
	},
	{
		"uri":"data:application/octet-stream;base64,",
		"byteLength":51504
	}],
	"images":[{
		"uri":"data:image/jpeg;base64,"
	},
	{
		"uri":"data:image/jpeg;base64,"
	},
	{
		"uri":"data:image/jpeg;base64,"
	},
	{
		"uri":"data:image/jpeg;base64,"
	},
	{
		"uri":"data:image/jpeg;base64,"
	}],
	"samplers":[{
		"magFilter":9729,
		"minFilter":9729,
		"wrapS":10497,
		"wrapT":10497
	},
	{
		"magFilter":9729,
		"minFilter":9729,
		"wrapS":10497,
		"wrapT":10497
	},
	{
		"magFilter":9729,
		"minFilter":9729,
		"wrapS":10497,
		"wrapT":10497
	},
	{
		"magFilter":9729,
		"minFilter":9729,
		"wrapS":10497,
		"wrapT":10497
	},
	{
		"magFilter":9729,
		"minFilter":9729,
		"wrapS":10497,
		"wrapT":10497
	}],
	"textures":[{
		"sampler":0,
		"source":0
	},
	{
		"sampler":1,
		"source":1
	},
	{
		"sampler":2,
		"source":2
	},
	{
		"sampler":3,
		"source":3
	},
	{
		"sampler":4,
		"source":4
	}]
}